<?xml version="1.0" standalone="no"?>
<!DOCTYPE svg PUBLIC "-//W3C//DTD SVG 20010904//EN"
 "http://www.w3.org/TR/2001/REC-SVG-20010904/DTD/svg10.dtd">
<svg version="1.0" xmlns="http://www.w3.org/2000/svg"
 width="512.000000pt" height="512.000000pt" viewBox="0 0 512.000000 512.000000"
 preserveAspectRatio="xMidYMid meet">
<metadata>
Created by potrace 1.11, written by Peter Selinger 2001-2013
</metadata>
<g transform="translate(0.000000,512.000000) scale(0.100000,-0.100000)"
fill="#000000" stroke="none">
<path d="M1134 4878 c-2 -3 -13 -4 -23 -1 -29 8 -64 -33 -59 -68 4 -25 1 -29
-18 -29 -13 0 -25 4 -29 10 -10 15 -32 1 -61 -41 -21 -30 -30 -37 -40 -28 -19
16 -77 -20 -70 -44 2 -10 -4 -21 -16 -28 -15 -8 -17 -13 -8 -24 6 -8 18 -11
26 -8 22 8 30 -28 9 -43 -9 -7 -15 -20 -12 -28 3 -8 -6 -23 -23 -36 -16 -13
-26 -28 -23 -36 3 -8 9 -12 13 -9 10 6 19 -40 11 -53 -3 -4 -14 -11 -23 -15
-26 -9 -23 -37 2 -30 11 3 20 1 21 -3 0 -5 2 -72 4 -149 3 -106 7 -142 18
-150 12 -8 15 -36 8 -65 0 -3 -18 -5 -39 -5 -44 0 -65 17 -76 59 -5 19 -11 25
-17 19 -17 -17 -19 -54 -4 -60 8 -3 15 -13 15 -22 0 -22 38 -54 56 -47 8 3 15
0 16 -7 0 -7 2 -16 2 -22 3 -19 17 -35 27 -30 5 3 6 -1 3 -9 -4 -9 1 -18 10
-22 9 -3 16 -12 16 -19 0 -7 7 -16 16 -19 8 -3 14 -14 12 -23 -4 -22 2 -31 84
-114 37 -37 68 -78 70 -91 2 -13 10 -28 18 -35 8 -7 12 -13 8 -13 -4 0 13 -19
37 -41 25 -23 45 -47 45 -55 0 -15 40 -45 51 -38 4 2 11 -1 15 -7 4 -6 -1 -16
-10 -21 -16 -9 -16 -11 3 -29 12 -11 21 -24 21 -29 0 -5 7 -15 14 -23 13 -12
13 -18 2 -33 -13 -17 -15 -16 -43 15 -25 26 -35 31 -56 25 -32 -7 -34 -19 -7
-34 11 -6 19 -14 19 -18 -3 -18 2 -35 8 -29 9 10 43 -44 36 -56 -3 -6 -1 -7 5
-3 7 4 12 2 12 -3 0 -6 13 -24 30 -39 30 -29 30 -29 10 -47 -11 -10 -20 -13
-20 -7 0 17 -48 65 -58 58 -11 -7 -3 -56 9 -56 4 0 18 -10 29 -22 12 -13 27
-23 34 -23 16 0 76 -51 76 -64 0 -6 6 -11 13 -11 8 0 20 -12 27 -26 15 -27 45
-48 70 -49 8 0 15 -9 15 -20 0 -12 11 -26 28 -34 15 -7 27 -20 27 -27 0 -10
13 -14 39 -14 34 0 38 -3 37 -22 -1 -18 5 -24 27 -26 21 -3 27 -8 27 -28 0
-16 5 -24 13 -21 22 8 46 -11 40 -33 -3 -12 0 -20 7 -20 20 0 40 -27 40 -55 0
-19 -21 -48 -77 -107 -43 -44 -102 -105 -130 -135 -29 -30 -53 -52 -53 -48 0
3 -17 -12 -38 -35 -22 -22 -42 -40 -46 -40 -4 0 -18 -12 -31 -26 -14 -15 -39
-37 -57 -50 -17 -13 -29 -24 -25 -24 8 0 -46 -55 -55 -55 -4 0 -34 -28 -67
-61 -53 -55 -121 -112 -121 -101 0 2 -19 -13 -42 -35 -23 -21 -44 -38 -48 -38
-4 0 -12 -11 -18 -25 -8 -17 -20 -25 -38 -25 -16 0 -34 -10 -46 -25 -11 -14
-26 -25 -33 -25 -8 0 -28 -13 -44 -29 -16 -16 -33 -26 -36 -23 -4 4 -13 -1
-20 -11 -9 -13 -27 -19 -60 -20 l-46 -1 2 -44 c3 -38 -1 -49 -26 -73 -26 -26
-39 -34 -48 -26 -2 1 -15 -11 -29 -28 -16 -19 -24 -38 -22 -52 3 -13 0 -23 -6
-23 -5 0 -10 -9 -10 -19 0 -11 -7 -26 -14 -34 -8 -8 -14 -27 -13 -43 2 -20 -4
-36 -19 -49 -13 -11 -24 -26 -26 -34 -2 -7 -14 -26 -27 -41 -32 -38 -39 -98
-13 -116 15 -10 19 -23 16 -59 -3 -39 -1 -45 16 -45 11 0 20 4 20 9 0 17 57
73 64 63 9 -16 -14 -61 -36 -67 -22 -8 -24 -25 -3 -25 19 0 20 -19 1 -26 -8
-3 -13 -13 -11 -22 2 -9 4 -20 4 -24 1 -4 17 -7 36 -6 30 1 35 5 35 25 0 13 4
22 9 18 5 -3 13 -1 16 5 5 8 11 8 21 0 11 -10 8 -16 -16 -37 -17 -14 -30 -33
-30 -44 0 -10 -5 -19 -12 -19 -6 0 -3 -6 7 -14 11 -8 26 -11 34 -8 7 3 19 -2
26 -11 7 -10 16 -13 26 -6 8 5 10 9 6 9 -4 0 -3 9 3 20 6 11 16 18 21 14 6 -3
16 2 23 11 8 11 22 16 41 13 34 -4 42 -20 20 -42 -9 -9 -14 -20 -10 -25 3 -5
-4 -16 -15 -24 -17 -12 -18 -16 -6 -26 8 -6 20 -10 27 -9 7 2 15 -6 17 -17 2
-11 15 -30 28 -41 14 -12 24 -32 24 -47 0 -14 6 -32 13 -39 7 -7 13 -25 12
-39 -1 -14 3 -26 9 -27 6 -1 22 -3 35 -5 24 -4 47 -40 36 -58 -9 -13 15 -50
27 -43 6 4 17 -1 24 -11 12 -17 51 -15 41 2 -3 5 5 8 17 8 28 0 29 -24 2 -46
-20 -16 -20 -16 0 -23 10 -3 29 -4 41 -2 12 3 24 -1 27 -9 5 -14 96 -18 96 -4
0 4 22 16 49 28 28 11 53 26 56 31 8 13 42 13 47 -1 8 -23 43 -15 71 18 17 19
43 41 60 50 17 8 41 28 54 44 14 16 30 29 36 29 7 0 41 30 77 65 35 36 68 65
72 65 4 0 26 17 47 38 22 21 47 37 56 36 10 -2 18 8 22 27 4 20 11 29 21 27 9
-2 32 14 51 34 20 21 43 39 51 40 8 2 19 8 25 15 5 6 24 13 40 15 17 2 39 13
50 26 11 13 31 24 45 24 14 1 31 6 38 11 6 5 12 6 12 1 0 -5 5 -2 10 6 16 25
35 -3 20 -30 -16 -29 -3 -37 56 -34 33 2 51 9 68 27 17 18 34 25 61 25 28 0
44 7 62 26 13 14 22 26 19 26 -2 0 45 49 105 109 60 60 109 114 109 120 0 7 5
9 10 6 6 -3 10 3 10 14 0 11 18 38 41 60 23 22 39 46 37 53 -3 7 8 18 25 25
16 7 27 18 25 25 -3 7 4 21 13 32 18 19 19 19 49 -15 16 -19 30 -39 30 -44 0
-6 20 -28 45 -49 24 -22 42 -42 40 -46 -3 -5 24 -37 60 -73 36 -36 64 -70 63
-75 -2 -5 21 -31 50 -57 38 -36 52 -57 52 -76 0 -19 13 -39 40 -65 22 -21 39
-43 37 -49 -2 -5 15 -26 39 -45 23 -19 43 -39 43 -44 1 -5 13 -19 27 -31 19
-16 25 -29 21 -44 -3 -11 1 -25 9 -32 8 -6 14 -16 14 -22 0 -14 43 -51 66 -55
10 -2 22 -9 25 -14 4 -6 12 -7 18 -4 6 4 23 -7 38 -24 20 -24 32 -31 51 -27
19 4 26 -1 34 -25 12 -33 33 -32 32 1 -1 22 4 24 66 23 34 -1 65 -26 54 -43
-3 -5 -1 -9 5 -9 5 0 13 -9 16 -20 3 -11 14 -20 23 -20 15 -1 15 -2 -2 -15
-22 -16 -15 -48 9 -39 9 4 23 -4 36 -20 29 -36 52 -35 46 4 -6 36 8 48 53 46
19 -1 38 2 42 8 12 17 37 15 43 -5 4 -10 13 -20 21 -20 55 -5 59 -4 64 21 3
14 13 26 25 29 11 2 23 7 26 13 3 5 36 10 74 11 61 3 70 6 90 31 21 27 23 27
34 10 11 -19 11 -19 25 0 8 10 21 16 28 13 7 -2 23 0 36 4 12 5 22 5 22 0 0
-20 29 -18 51 2 13 12 27 21 31 20 5 -2 8 2 8 8 0 6 7 17 15 26 10 9 13 23 9
35 -7 24 49 88 78 88 15 0 18 9 18 60 0 50 4 63 26 85 14 14 22 30 19 35 -3 6
1 13 9 16 19 7 21 31 4 36 -7 3 -13 18 -14 34 -2 44 -2 44 -24 44 -11 0 -20 3
-21 8 0 4 -2 16 -4 27 -3 11 3 26 13 33 16 12 16 14 0 26 -10 7 -18 23 -18 35
0 13 -6 21 -16 21 -10 0 -14 6 -11 14 3 8 -1 20 -9 26 -8 7 -14 21 -14 31 0
11 -5 19 -11 19 -5 0 -15 13 -20 30 -6 16 -15 28 -19 25 -5 -3 -7 3 -5 14 2
11 -3 25 -11 32 -8 6 -14 20 -14 31 0 10 -8 22 -17 25 -22 9 -63 44 -63 55 0
4 9 8 20 8 11 0 20 -4 20 -10 0 -5 6 -10 14 -10 8 0 16 -7 20 -15 5 -15 73
-19 82 -4 6 10 -40 56 -53 52 -19 -7 -48 39 -51 81 -1 22 -4 52 -5 66 -1 14
-8 26 -14 26 -7 1 -17 2 -22 3 -5 0 -8 23 -8 49 1 42 -4 52 -36 85 -21 20 -42
37 -46 37 -5 0 -12 7 -15 16 -3 8 -10 12 -16 9 -5 -3 -10 -1 -10 5 0 7 -7 10
-14 7 -10 -4 -13 -1 -10 8 3 7 -3 16 -15 20 -12 3 -21 13 -21 21 0 8 -21 35
-47 59 -26 25 -44 45 -40 45 3 0 -4 11 -16 24 -12 13 -43 47 -69 75 -27 28
-48 55 -48 60 0 6 -23 32 -50 58 -28 26 -48 54 -45 61 3 7 0 10 -5 7 -6 -3
-10 -1 -10 4 0 12 -91 101 -102 101 -5 0 -8 8 -8 18 0 9 18 28 39 42 22 13 45
34 51 46 7 12 21 21 33 20 12 0 22 5 23 12 1 6 2 19 3 27 0 9 8 15 18 13 11
-2 22 6 28 20 5 12 16 22 23 22 7 0 10 -6 7 -12 -4 -7 0 -5 8 5 8 9 19 17 25
17 5 0 12 7 16 15 4 11 14 14 36 10 20 -4 30 -1 31 7 1 7 2 19 3 27 1 13 14
18 58 23 9 1 16 5 16 8 -2 24 6 39 29 51 33 17 127 79 120 79 -2 0 22 27 55
60 32 33 56 65 53 70 -3 6 0 10 7 10 9 0 9 3 -2 10 -12 8 -12 10 -1 10 8 0 12
3 8 6 -3 3 7 20 22 36 23 25 27 38 26 78 -1 35 2 51 13 55 8 3 12 8 9 12 -4 3
1 12 10 18 13 10 16 25 14 66 -3 54 -13 71 -38 62 -32 -12 -9 42 42 97 30 33
55 57 55 53 0 -12 34 40 36 55 2 7 14 24 27 36 27 25 22 54 -7 43 -11 -4 -18
1 -21 16 -7 28 0 73 12 70 5 -1 8 17 8 40 -1 23 4 52 11 63 14 23 13 69 -2 84
-5 5 -25 3 -46 -5 -21 -7 -38 -8 -38 -3 0 5 -6 6 -12 2 -10 -6 -10 -5 -1 8 7
8 10 17 7 21 -3 3 4 8 17 12 17 6 19 9 8 16 -9 5 -10 9 -2 9 18 0 3 40 -16 41
-49 3 -107 -4 -113 -14 -3 -5 -4 -16 -1 -24 7 -17 -18 -17 -53 2 -17 9 -30 11
-32 5 -2 -6 -8 -8 -13 -4 -5 3 -9 0 -9 -6 0 -6 -4 -9 -9 -5 -13 7 -6 42 12 59
9 9 13 32 12 58 -2 39 -5 43 -28 46 -21 3 -27 9 -27 28 0 14 6 24 14 24 8 0
13 7 12 16 -1 9 10 30 25 47 22 24 26 34 18 53 -5 14 -5 24 0 24 5 0 7 9 4 19
-3 13 5 30 21 48 28 30 33 52 14 71 -8 8 -8 15 1 26 10 12 9 15 -6 20 -24 8
-43 58 -31 80 11 19 -6 46 -28 46 -19 0 -60 42 -56 58 2 7 -4 15 -13 18 -9 4
-15 16 -14 28 3 39 -1 46 -25 46 -13 0 -26 6 -29 14 -4 10 -16 13 -35 10 -21
-3 -31 0 -35 11 -11 27 -41 16 -80 -30 -35 -40 -41 -44 -60 -33 -14 7 -17 13
-9 16 6 2 12 11 12 19 0 9 -6 13 -14 10 -16 -6 -40 16 -29 26 3 4 1 7 -5 7 -6
0 -15 -7 -20 -15 -5 -10 -26 -17 -52 -19 -24 -2 -46 -9 -48 -15 -2 -6 -15 -11
-28 -11 -17 0 -24 -6 -24 -18 0 -20 -39 -62 -58 -62 -7 0 -12 -8 -12 -17 0 -9
-3 -14 -6 -10 -13 13 -138 -135 -171 -202 -3 -8 -24 -30 -46 -50 -21 -20 -61
-58 -88 -84 -27 -27 -53 -46 -58 -43 -9 6 -71 -58 -71 -74 0 -5 -4 -9 -9 -8
-4 2 -17 -7 -27 -20 -11 -13 -27 -24 -36 -25 -24 -4 -158 -147 -158 -169 0 -6
-2 -9 -5 -6 -5 5 -111 -96 -156 -148 -10 -11 -28 -28 -40 -40 -13 -11 -41 -39
-62 -62 -21 -23 -45 -42 -53 -42 -8 0 -14 -4 -14 -10 0 -21 -21 -8 -75 44 -31
31 -55 64 -55 75 0 24 -4 25 -32 10 -18 -10 -20 -9 -16 9 4 14 -5 33 -28 59
-48 54 -54 61 -54 67 0 11 -60 66 -71 66 -6 0 -9 7 -5 15 3 9 -19 38 -59 79
-36 36 -65 70 -65 75 0 5 -25 33 -55 62 -30 29 -55 58 -55 66 0 14 -84 97
-101 99 -5 1 -13 2 -18 3 -5 0 -8 16 -7 34 1 22 -4 32 -14 33 -8 1 -21 2 -28
3 -8 1 -11 10 -8 26 3 16 -2 32 -13 43 -9 9 -17 24 -16 32 0 8 -11 17 -25 20
-19 4 -24 11 -22 28 3 18 -2 22 -22 22 -36 0 -54 -35 -26 -52 11 -7 20 -17 20
-22 0 -4 14 -24 30 -43 25 -28 29 -38 19 -49 -14 -18 -43 1 -35 23 3 8 1 11
-4 8 -6 -3 -10 -2 -10 3 0 5 -16 9 -35 7 -19 -1 -36 2 -36 7 -1 4 -2 12 -3 16
0 5 -14 24 -31 43 -26 30 -36 34 -73 33 -35 -2 -49 3 -73 27 -16 15 -29 33
-29 38 0 6 -14 8 -31 6 -26 -3 -38 4 -83 50 -37 39 -56 51 -63 44 -13 -13 -37
23 -25 36 4 5 1 5 -5 1 -7 -4 -13 -2 -13 5 0 6 -8 9 -19 6 -11 -3 -26 2 -35
12 -11 12 -30 16 -70 15 -34 -2 -59 2 -63 9 -8 13 -162 17 -169 5z"/>
<path d="M750 3856 c0 -8 7 -17 16 -20 8 -3 12 -11 8 -17 -3 -6 6 -22 22 -35
21 -19 30 -21 36 -12 4 8 2 17 -7 24 -8 6 -15 16 -15 22 0 17 -32 52 -47 52
-7 0 -13 -6 -13 -14z"/>
<path d="M4020 400 c0 -5 5 -10 10 -10 6 0 10 5 10 10 0 6 -4 10 -10 10 -5 0
-10 -4 -10 -10z"/>
</g>
</svg>
