<?xml version="1.0" encoding="utf-8"?>
<!-- Generator: Adobe Illustrator 23.0.3, SVG Export Plug-In . SVG Version: 6.00 Build 0)  -->
<svg version="1.1" id="Layer_1" xmlns="http://www.w3.org/2000/svg" xmlns:xlink="http://www.w3.org/1999/xlink" x="0px" y="0px"
	 viewBox="0 0 409.6 409.6" style="enable-background:new 0 0 409.6 409.6;" xml:space="preserve">
<g>
	<g>
		<path d="M218.6,410.6c-8.5,0-17.1,0-25.6,0c-2.8-0.3-5.5-0.7-8.3-1c-54-6.4-99.7-29.2-134.4-71.1
			c-50.8-61.3-62.5-130.5-35.8-205.4c14.1-39.5,39.6-70.9,73.9-95.1c29.1-20.5,61.4-32.5,96.7-36c41.1-4.1,80.3,3.1,116.7,23
			c57.5,31.4,92.5,79.7,105.5,143.9c1.6,7.9,2.3,16,3.4,24c0,8.5,0,17.1,0,25.6c-0.3,2.9-0.7,5.8-1,8.6c-4,35.5-16,68.1-36.9,97.1
			c-32.4,44.9-76,72.5-130.4,83C234.5,408.8,226.5,409.5,218.6,410.6z M213.8,166.6c0-7.7-0.3-14.8,0.1-21.9
			c0.5-12.3,6.1-17.5,18.4-17.6c8.1-0.1,16.3-0.2,24.4,0.1c3.7,0.1,4.5-1.2,4.4-4.6c-0.2-10.1-0.1-20.3-0.1-30.4
			c0-1.3-0.1-2.6-0.2-3.9c-1.1-0.1-1.9-0.3-2.7-0.3c-13.9,0-27.7-0.2-41.6,0.1c-22.2,0.4-36,11.5-39.5,33.6
			c-2,12.7-1.6,25.7-2.2,38.6c-0.1,1.9,0,3.9,0,6.3c-8.2,0-15.9,0-23.7,0c0,13.3,0,26.1,0,39.4c8,0,15.7,0,23.7,0c0,2.1,0,3.8,0,5.5
			c0,36,0.1,72-0.1,108c0,3.7,1.1,4.7,4.7,4.6c9.9-0.2,19.7-0.2,29.6,0c3.7,0.1,4.7-1,4.7-4.7c-0.1-36.1-0.1-72.3-0.1-108.4
			c0-1.7,0-3.3,0-5.4c13.4,0,26.2,0,39.1,0c2-13.1,4-25.8,6-39C243.7,166.6,229,166.6,213.8,166.6z"/>
	</g>
</g>
</svg>
