<?xml version="1.0" encoding="utf-8"?>
<!-- Generator: Adobe Illustrator 23.0.3, SVG Export Plug-In . SVG Version: 6.00 Build 0)  -->
<svg version="1.1" id="Layer_1" xmlns="http://www.w3.org/2000/svg" xmlns:xlink="http://www.w3.org/1999/xlink" x="0px" y="0px"
	 viewBox="0 0 253.3 253.3" style="enable-background:new 0 0 253.3 253.3;" xml:space="preserve">
<g>
	<g>
		<path d="M126.8,0c69.3,0,126.7,56.1,126.6,127.1c-0.2,70.8-58.2,127.3-128.7,126.3c-68.6-1-125-57-124.7-127.4
			C0.4,56,57.3-0.1,126.8,0z M126.8,55.7c0,0.1,0,0.1,0,0.2c-8.1,0-16.2-0.1-24.2,0c-4.3,0.1-8.6,0.2-12.9,0.7
			c-18.7,2.3-31.5,18.1-33,34.9c-0.6,6.1-0.9,12.3-0.9,18.4c-0.1,12.6-0.1,25.3,0.1,37.9c0.1,5.5,0.4,11,1.3,16.3
			c2.5,15.4,15,31,36,32.6c6.4,0.5,12.9,0.6,19.4,0.7c9.6,0.1,19.1,0.2,28.7,0.1c6.4-0.1,12.8-0.3,19.2-0.7
			c10.4-0.7,19.1-4.7,26.3-12.5c6.7-7.3,10.2-15.8,10.6-25.5c0.4-10.6,0.7-21.2,0.7-31.8c0-10.1-0.5-20.1-0.6-30.2
			c-0.1-5-0.6-10-2.2-14.7c-2-5.8-5.5-10.5-9.8-14.9c-4.9-5-10.7-8.3-17.5-9.9c-6.1-1.5-12.4-1.4-18.6-1.6
			C141.7,55.6,134.3,55.7,126.8,55.7z"/>
		<path d="M186.2,127.3c-0.3,10.8-0.5,21.6-0.9,32.4c-0.4,11.8-8.8,21.6-21,24.4c-5.7,1.3-11.5,1.6-17.3,1.7
			c-14,0.1-27.9,0.1-41.9-0.1c-5.8-0.1-11.7-0.3-17.3-2c-11.3-3.5-18.7-12.9-19.4-24.6c-0.5-8.2-0.8-16.4-1-24.5
			c-0.3-12.9,0-25.9,0.7-38.8c0.4-7.2,2.8-13.5,7.3-19c3.3-4,7.7-6.1,12.6-7.5c4.1-1.1,8.2-1.5,12.4-1.5c6.9,0,13.8-0.3,20.7-0.4
			c5,0,9.9,0.1,14.9,0.2c7,0.1,14.1,0,21.1,0.3c7.3,0.3,13.9,2.4,19.5,7.5c5.1,4.7,7.7,10.6,8.4,17.3c0.5,4.7,0.7,9.4,0.8,14.1
			c0.1,6.9,0,13.7,0,20.6C185.9,127.3,186,127.3,186.2,127.3z M90.6,126.7c-0.7,15,13.9,36.4,36,36.4c19.6,0,35.9-18.3,36.3-35.6
			c0.4-18.9-16.3-37.3-36.1-37.3C107.2,90.2,90.3,108,90.6,126.7z M163.8,81.9c-0.7,0-1.5,0.1-2.4,0.2c-2.9,0.3-4.9,1.9-5.4,4.5
			c-0.3,2-0.3,4.1,0,6c0.4,2.6,2.2,4.1,4.7,4.7c2.1,0.5,4.1,0.4,6.2-0.1c2.4-0.7,4-2.2,4.4-4.6c0.3-1.7,0.3-3.6,0.1-5.3
			c-0.5-3.2-2.3-4.8-5.5-5.2C165.2,82,164.6,82,163.8,81.9z"/>
		<path d="M126.6,150.8c-12.6,0.6-24.2-11-24-24c0.2-14.1,10.4-24.6,24.4-24.6c10.7,0,23.6,8.3,23.7,24.7
			C150.8,139.9,139.3,151.4,126.6,150.8z"/>
	</g>
</g>
</svg>
