<svg id="Layer_1" data-name="Layer 1" xmlns="http://www.w3.org/2000/svg" viewBox="0 0 730.89 168.2">
  <defs>
    <style>
      .cls-1 {
        isolation: isolate;
      }

      .cls-2 {
        fill: #fff;
      }
    </style>
  </defs>
  <title>wArtboard 1</title>
  <g class="cls-1">
    <g class="cls-1">
      <path class="cls-2" d="M43.5,65.8h-.4L17.6,28.4V85H9.9V15h8L43.4,53.2,68.9,15h8V85H69V28.3Z"/>
      <path class="cls-2" d="M161.9,85h-8.5l-8.2-18.5H107.1L98.8,85H90.7l31.9-70.5H130ZM126.2,23.8l-16,35.7h31.9Z"/>
      <path class="cls-2" d="M223.9,85,203.6,57.8h-20V85h-7.9V15h30.1a34,34,0,0,1,10.45,1.5,23.62,23.62,0,0,1,7.95,4.25,19,19,0,0,1,5.1,6.61,19.93,19.93,0,0,1,1.8,8.55,20.77,20.77,0,0,1-1.4,7.85,18,18,0,0,1-3.95,6A22.14,22.14,0,0,1,219.7,54a28.13,28.13,0,0,1-7.6,2.4L233.6,85Zm-5.41-59q-4.71-3.66-13.24-3.66H183.6V50.8h21.55a24.76,24.76,0,0,0,7.22-1,17.85,17.85,0,0,0,5.72-2.86,13.21,13.21,0,0,0,3.76-4.57,13.56,13.56,0,0,0,1.35-6.12Q223.2,29.62,218.49,26Z"/>
      <path class="cls-2" d="M256.6,15V85h-7.9V15Z"/>
      <path class="cls-2" d="M342.3,85h-8.5l-8.2-18.5H287.5L279.2,85h-8.1L303,14.5h7.4ZM306.6,23.8l-16,35.7h31.9Z"/>
      <path class="cls-2" d="M425.22,16.25a22.62,22.62,0,0,1,7.19,3.5,15.28,15.28,0,0,1,4.59,5.5,16.28,16.28,0,0,1,1.59,7.25,17.85,17.85,0,0,1-.94,6.1,16,16,0,0,1-2.55,4.6,16.67,16.67,0,0,1-3.54,3.35,22.64,22.64,0,0,1-4,2.25,30.86,30.86,0,0,1,5.84,2.35,19.67,19.67,0,0,1,4.74,3.45,15.11,15.11,0,0,1,3.2,4.8,16.3,16.3,0,0,1,1.19,6.4,18,18,0,0,1-1.79,8.1,16.61,16.61,0,0,1-5.14,6,24.7,24.7,0,0,1-8,3.75A38.71,38.71,0,0,1,417.14,85H386.09V15h29.75A32.91,32.91,0,0,1,425.22,16.25Zm1,26.74q4.49-3.21,4.49-9.44a10.14,10.14,0,0,0-4-8.44q-4-3.11-11.47-3.11H394V46.2h20.65Q421.72,46.2,426.21,43Zm3.8,31.7a10.86,10.86,0,0,0,4.58-9.34,10.22,10.22,0,0,0-4.68-9Q425.21,53.2,416,53.2H394V78h23.45Q425.42,78,430,74.69Z"/>
      <path class="cls-2" d="M458.29,15h7.9V77.7h39.4V85h-47.3Z"/>
    </g>
    <g class="cls-1">
      <path class="cls-2" d="M585.39,85h-8.5l-8.2-18.5h-38.1L522.29,85h-8.1l31.9-70.5h7.4Zm-35.7-61.2-16,35.7h31.9Z"/>
    </g>
    <g class="cls-1">
      <path class="cls-2" d="M649.44,79a35.23,35.23,0,0,1-6.35,3.85,36.08,36.08,0,0,1-7.3,2.5,38.76,38.76,0,0,1-8.7.9A34.42,34.42,0,0,1,602,75.75a35.06,35.06,0,0,1-7.35-11.45A37.68,37.68,0,0,1,592,50.1,37.42,37.42,0,0,1,594.64,36,36.27,36.27,0,0,1,602,24.45a34.19,34.19,0,0,1,11.2-7.8,35,35,0,0,1,14.2-2.85,43,43,0,0,1,8.65.8,35.37,35.37,0,0,1,7.15,2.25,32.35,32.35,0,0,1,6.1,3.5,52.06,52.06,0,0,1,5.4,4.55l-5.4,5.8a44.3,44.3,0,0,0-9.65-6.9,27,27,0,0,0-31.7,5.6,28.41,28.41,0,0,0-5.7,9.15,30.85,30.85,0,0,0-2,11.35,31.23,31.23,0,0,0,2,11.4,28.32,28.32,0,0,0,5.7,9.2,26.86,26.86,0,0,0,8.6,6.15,25.66,25.66,0,0,0,10.75,2.25,27,27,0,0,0,12.4-2.65,43.13,43.13,0,0,0,10.2-7.45l5.2,5.1A49.25,49.25,0,0,1,649.44,79Z"/>
      <path class="cls-2" d="M728.49,85h-9.9l-26.9-33.9-14.9,15.1V85h-7.9V15h7.9V56.8L717,15h10.2l-30,30.6Z"/>
    </g>
    <g class="cls-1">
      <path class="cls-2" d="M228,153.67a10.86,10.86,0,0,1-2.25,3.8,9,9,0,0,1-3.44,2.28,12.27,12.27,0,0,1-4.35.75,11.46,11.46,0,0,1-6.55-1.75,14.34,14.34,0,0,1-4.25-4.45l2.85-2.45a13.61,13.61,0,0,0,3.43,3.73,7.85,7.85,0,0,0,4.57,1.27,6.36,6.36,0,0,0,4.9-2.13q2-2.11,2-6.27V125h3.95v23.4A15.65,15.65,0,0,1,228,153.67Z"/>
      <path class="cls-2" d="M264,128.6H242.67v12h19.1v3.6h-19.1V156.4h21.6V160H238.72V125H264Z"/>
      <path class="cls-2" d="M293.92,124.9h3.25l9.6,29.25,10-29.15h4.15l-12.5,35.25h-3.35l-9.6-28.4-9.65,28.4h-3.3L270,125h4.3l10,29.15Z"/>
      <path class="cls-2" d="M353.87,128.6H332.52v12h19.1v3.6h-19.1V156.4h21.6V160H328.57V125h25.3Z"/>
      <path class="cls-2" d="M362.57,125h3.95v31.35h19.7V160H362.57Z"/>
      <path class="cls-2" d="M394,125h4v31.35h19.7V160H394Z"/>
      <path class="cls-2" d="M450.77,128.6H429.42v12h19.1v3.6h-19.1V156.4H451V160H425.47V125h25.3Z"/>
    </g>
    <g class="cls-1">
      <path class="cls-2" d="M483.12,160,473,146.4H463V160h-4V125h15.05a16.91,16.91,0,0,1,5.22.75,11.75,11.75,0,0,1,4,2.13,9.35,9.35,0,0,1,2.55,3.3,10,10,0,0,1,.9,4.28,10.3,10.3,0,0,1-.7,3.92,8.87,8.87,0,0,1-2,3,10.94,10.94,0,0,1-3,2.13,13.84,13.84,0,0,1-3.8,1.2L488,160Zm-2.71-29.52a10.54,10.54,0,0,0-6.61-1.83H463V142.9h10.78a12.6,12.6,0,0,0,3.61-.5,8.87,8.87,0,0,0,2.85-1.43,6.47,6.47,0,0,0,1.88-2.28,6.82,6.82,0,0,0,.68-3.07A6.15,6.15,0,0,0,480.41,130.48Z"/>
    </g>
    <g class="cls-1">
      <path class="cls-2" d="M509.32,160h-3.95V146.15L490.82,125h4.8l11.77,17.5L519.27,125h4.6l-14.55,21.1Z"/>
    </g>
  </g>
</svg>
