<svg xmlns="http://www.w3.org/2000/svg" viewBox="0 0 497 497">
  <defs>
    <style>
      .cls-1, .cls-6, .cls-7, .cls-9 {
        fill: #042d3e;
      }

      .cls-1, .cls-9 {
        stroke: #f2f0f0;
      }

      .cls-1, .cls-4, .cls-5, .cls-7 {
        stroke-miterlimit: 10;
      }

      .cls-1 {
        stroke-width: 5px;
      }

      .cls-2 {
        fill: #f8f5ff;
      }

      .cls-3 {
        fill: #ffa21a;
      }

      .cls-4, .cls-5 {
        fill: #f2f0f0;
        stroke: #042d3e;
      }

      .cls-5, .cls-7, .cls-9 {
        stroke-width: 2px;
      }

      .cls-7 {
        stroke: #ffa21a;
        stroke-linecap: round;
      }

      .cls-8 {
        fill: #e5e5e5;
      }

      .cls-9 {
        font-size: 100px;
        stroke-linecap: square;
        stroke-miterlimit: 5;
        font-family: VT323-Regular, VT323;
      }
    </style>
  </defs>
  <title>kosmo_kadet_logo</title>
  <g id="logo">
    <circle id="circle" class="cls-1" cx="248.5" cy="248.5" r="246"/>
    <g id="rocket">
      <path id="white_exhaust" class="cls-2" d="M322.35,298.37a91.34,91.34,0,0,0,79,28.85,105.51,105.51,0,0,0-44.3-69.44Z"/>
      <path id="yellow_exhaust" class="cls-3" d="M330.11,287.62A45.71,45.71,0,0,0,369.63,302a53.4,53.4,0,0,0-9.51-22.48,52.81,52.81,0,0,0-12.64-12.24Z"/>
      <path id="left_foot" class="cls-4" d="M204.53,248.25C194,246.92,162,301.65,182.9,342.32c25.82,50.33,112.7,40.37,114.77,32.45,1.47-5.64-40.61-8.72-67.43-44.89C202.35,292.24,213.66,249.41,204.53,248.25Z"/>
      <path id="right_foot" class="cls-4" d="M285.14,140.39C282.9,130,334.63,93.4,377,110.64,429.36,132,427,219.41,419.3,222.15c-5.5,2-12.23-39.69-50.6-63.25C328.78,134.39,287.09,149.39,285.14,140.39Z"/>
      <path id="avocado" class="cls-5" d="M196.16,311.44C101.05,274,68.24,139.83,74.23,53.19c.16-2.31.34-4.46.52-6.4a8.46,8.46,0,0,1,7.35-7.61c1.47-.18,3.07-.38,4.78-.57,82.32-9.2,220.62,9.86,267.92,102,19.58,38.13,30.91,103.07-4.33,145.24C313.23,330.43,241.09,329.11,196.16,311.44Z"/>
      <g id="top_ring">
        <path id="top_ring-2" data-name="top_ring" class="cls-6" d="M81.33,144.65a1,1,0,0,1-.58-1.81c15-10.64,37.13-27.28,55.82-48.83a298.91,298.91,0,0,0,37.8-54.93,1,1,0,1,1,1.76.94,301.11,301.11,0,0,1-38,55.31C119.25,117,97,133.77,81.91,144.47A1,1,0,0,1,81.33,144.65Z"/>
      </g>
      <circle id="window" class="cls-7" cx="186.81" cy="141.02" r="26"/>
      <path id="rocket_shading" class="cls-8" d="M110.81,213c-9.76,4.14,32.51,60.34,71,85,47.64,30.5,126.2,19.87,124,12-1.57-5.62-55-10-104-36C160.43,252.06,119.28,209.42,110.81,213Z"/>
      <path id="window_shading" class="cls-2" d="M173.76,128.12c-2.63-.33-10.63,13.35-5.41,23.52,6.46,12.58,28.18,10.09,28.7,8.12.36-1.42-10.16-2.19-16.86-11.23C173.22,139.12,176,128.41,173.76,128.12Z"/>
    </g>
  </g>
  <g id="text">
    <g id="kosmo_kadet">
      <text class="cls-9" transform="translate(28.5 445.9)">KOSMO KADET</text>
    </g>
  </g>
</svg>
