<svg id="ui" xmlns="http://www.w3.org/2000/svg" viewBox="0 0 514 148">
  <defs>
    <style>
      .cls-1 {
        fill: #f2f0f0;
      }

      .cls-2 {
        fill: #f3915c;
      }
    </style>
  </defs>
  <title>ui</title>
  <g id="big_button">
    <rect class="cls-1" x="29" y="34" width="456" height="80" rx="14.5"/>
    <path class="cls-2" d="M470.5,36.5a12,12,0,0,1,12,12v51a12,12,0,0,1-12,12H43.5a12,12,0,0,1-12-12v-51a12,12,0,0,1,12-12h427m0-5H43.5a17,17,0,0,0-17,17v51a17,17,0,0,0,17,17h427a17,17,0,0,0,17-17v-51a17,17,0,0,0-17-17Z"/>
  </g>
</svg>
