<?xml version="1.0" encoding="utf-8"?>
<!-- Generator: Adobe Illustrator 23.0.1, SVG Export Plug-In . SVG Version: 6.00 Build 0)  -->
<svg version="1.1"
	 id="heart_1_" xmlns:cc="http://creativecommons.org/ns#" xmlns:dc="http://purl.org/dc/elements/1.1/" xmlns:inkscape="http://www.inkscape.org/namespaces/inkscape" xmlns:rdf="http://www.w3.org/1999/02/22-rdf-syntax-ns#" xmlns:sodipodi="http://sodipodi.sourceforge.net/DTD/sodipodi-0.dtd" xmlns:svg="http://www.w3.org/2000/svg"
	 xmlns="http://www.w3.org/2000/svg" xmlns:xlink="http://www.w3.org/1999/xlink" x="0px" y="0px" viewBox="0 0 60 60"
	 style="enable-background:new 0 0 60 60;" xml:space="preserve">
<style type="text/css">
	.st0{fill:#FFFFFF;}
	.st1{fill:#FEFEFE;}
	.st2{fill:#E5845A;}
	.st3{fill:#F2905D;}
	.st4{fill:#FF9364;}
</style>
<g id="life">
	<rect id="rect2987" x="15" y="20" class="st0" width="5" height="5"/>
	<rect id="rect3950" x="20" y="10" class="st1" width="5" height="5"/>
	<rect id="rect3950-2" x="15" y="10" class="st1" width="5" height="5"/>
	<rect id="rect3950-6" x="25" y="15" class="st1" width="5" height="5"/>
	<rect id="rect3950-0" x="30" y="15" class="st1" width="5" height="5"/>
	<rect id="rect3950-23" x="35" y="10" class="st1" width="5" height="5"/>
	<rect id="rect3950-7" x="40" y="10" class="st1" width="5" height="5"/>
	<rect id="rect3950-07" x="45" y="10" class="st1" width="5" height="5"/>
	<rect id="rect3950-62" x="50" y="15" class="st1" width="5" height="5"/>
	<rect id="rect3950-5" x="50" y="20" class="st1" width="5" height="5"/>
	<rect id="rect3950-9" x="10" y="10" class="st1" width="5" height="5"/>
	<rect id="rect3950-57" x="5" y="15" class="st1" width="5" height="5"/>
	<rect id="rect3950-1" x="5" y="20" class="st1" width="5" height="5"/>
	<rect id="rect3950-28" x="5" y="25" class="st1" width="5" height="5"/>
	<rect id="rect3950-72" x="50" y="25" class="st1" width="5" height="5"/>
	<rect id="rect3950-66" x="10" y="30" class="st1" width="5" height="5"/>
	<rect id="rect3950-00" x="15" y="35" class="st1" width="5" height="5"/>
	<rect id="rect3950-3" x="20" y="40" class="st1" width="5" height="5"/>
	<rect id="rect3950-99" x="25" y="45" class="st1" width="5" height="5"/>
	<rect id="rect3950-10" x="30" y="45" class="st1" width="5" height="5"/>
	<rect id="rect3950-38" x="35" y="40" class="st1" width="5" height="5"/>
	<rect id="rect3950-8" x="40" y="35" class="st1" width="5" height="5"/>
	<rect id="rect3950-74" x="45" y="30" class="st1" width="5" height="5"/>
	<rect id="rect3950-89" x="10" y="15" class="st2" width="5" height="5"/>
	<rect id="rect3950-89-7" x="15" y="15" class="st3" width="5" height="5"/>
	<rect id="rect3950-89-8" x="20" y="15" class="st3" width="5" height="5"/>
	<rect id="rect3950-89-1" x="10" y="20" class="st2" width="5" height="5"/>
	<rect id="rect3950-89-76" x="15" y="20" class="st3" width="5" height="5"/>
	<rect id="rect3950-89-4" x="20" y="20" class="st3" width="5" height="5"/>
	<rect id="rect3950-89-2" x="10" y="25" class="st2" width="5" height="5"/>
	<rect id="rect3950-89-79" x="15" y="25" class="st3" width="5" height="5"/>
	<rect id="rect3950-89-18" x="20" y="25" class="st3" width="5" height="5"/>
	<rect id="rect3950-89-3" x="15" y="30" class="st2" width="5" height="5"/>
	<rect id="rect3950-89-0" x="20" y="30" class="st3" width="5" height="5"/>
	<rect id="rect3950-89-5" x="20" y="35" class="st2" width="5" height="5"/>
	<rect id="rect3950-89-58" x="25" y="35" class="st3" width="5" height="5"/>
	<rect id="rect3950-89-36" x="25" y="40" class="st2" width="5" height="5"/>
	<rect id="rect3950-89-09" x="30" y="40" class="st3" width="5" height="5"/>
	<rect id="rect3950-89-50" x="30" y="35" class="st3" width="5" height="5"/>
	<rect id="rect3950-89-27" x="25" y="30" class="st3" width="5" height="5"/>
	<rect id="rect3950-89-505" x="30" y="30" class="st3" width="5" height="5"/>
	<rect id="rect3950-89-24" x="30" y="25" class="st3" width="5" height="5"/>
	<rect id="rect3950-89-6" x="25" y="25" class="st3" width="5" height="5"/>
	<rect id="rect3950-89-12" x="25" y="20" class="st3" width="5" height="5"/>
	<rect id="rect3950-89-65" x="30" y="20" class="st3" width="5" height="5"/>
	<rect id="rect3950-89-9" x="35" y="25" class="st3" width="5" height="5"/>
	<rect id="rect3950-89-21" x="40" y="30" class="st3" width="5" height="5"/>
	<rect id="rect3950-89-39" x="35" y="30" class="st3" width="5" height="5"/>
	<rect id="rect3950-89-26" x="35" y="35" class="st3" width="5" height="5"/>
	<rect id="rect3950-89-95" x="40" y="25" class="st3" width="5" height="5"/>
	<rect id="rect3950-89-19" x="35" y="20" class="st3" width="5" height="5"/>
	<rect id="rect3950-89-99" x="40" y="20" class="st3" width="5" height="5"/>
	<rect id="rect3950-89-86" x="45" y="25" class="st4" width="5" height="5"/>
	<rect id="rect3950-89-90" x="45" y="20" class="st4" width="5" height="5"/>
	<rect id="rect3950-89-41" x="45" y="15" class="st4" width="5" height="5"/>
	<rect id="rect3950-89-33" x="40" y="15" class="st4" width="5" height="5"/>
	<rect id="rect3950-89-63" x="35" y="15" class="st4" width="5" height="5"/>
</g>
</svg>
