<svg xmlns="http://www.w3.org/2000/svg" viewBox="0 0 123 145">
  <defs>
    <style>
      .cls-1 {
        fill: #fefefe;
      }
    </style>
  </defs>
  <title>ui</title>
  <g id="settings">
    <g id="mute_button">
      <path id="megaphone" class="cls-1" d="M55.19,83.21H33.39a.89.89,0,0,1-.89-.89V63.68a.89.89,0,0,1,.89-.89h21.8a.9.9,0,0,0,.59-.22L71,50.12a.89.89,0,0,1,1.48.67V95.21a.89.89,0,0,1-1.48.67L55.78,83.43A.9.9,0,0,0,55.19,83.21Z"/>
      <g id="x">
        <path id="left_line" class="cls-1" d="M78.77,65.66,95.34,82.23c1.18,1.19,1.59.78,2.13.24s1-1-.24-2.13L80.66,63.77c-1.18-1.19-1.59-.78-2.13-.24S77.58,64.48,78.77,65.66Z"/>
        <path id="right_line" class="cls-1" d="M80.66,82.23,97.23,65.66c1.19-1.18.78-1.59.24-2.13s-1-1-2.13.24L78.77,80.34c-1.19,1.18-.78,1.59-.24,2.13S79.48,83.42,80.66,82.23Z"/>
      </g>
    </g>
  </g>
</svg>
