<svg xmlns="http://www.w3.org/2000/svg" viewBox="0 0 123 145">
  <defs>
    <style>
      .cls-1 {
        fill: #f2f0f0;
      }

      .cls-2 {
        fill: #f3915c;
      }
    </style>
  </defs>
  <title>ui</title>
  <g id="settings">
    <g id="mute_button">
      <g id="round_button">
        <circle class="cls-1" cx="59.5" cy="71.5" r="40"/>
        <path class="cls-2" d="M59.5,34A37.5,37.5,0,1,1,22,71.5,37.5,37.5,0,0,1,59.5,34m0-5A42.5,42.5,0,1,0,102,71.5,42.55,42.55,0,0,0,59.5,29Z"/>
      </g>
      <path id="megaphone" class="cls-2" d="M55.19,83.21H33.39a.89.89,0,0,1-.89-.89V63.68a.89.89,0,0,1,.89-.89h21.8a.9.9,0,0,0,.59-.22L71,50.12a.89.89,0,0,1,1.48.67V95.21a.89.89,0,0,1-1.48.67L55.78,83.43A.9.9,0,0,0,55.19,83.21Z"/>
      <g id="x">
        <path class="cls-2" d="M74.77,65.66,91.34,82.23c1.18,1.19,1.59.78,2.13.24s1-1-.24-2.13L76.66,63.77c-1.18-1.19-1.59-.78-2.13-.24S73.58,64.48,74.77,65.66Z"/>
        <path class="cls-2" d="M76.66,82.23,93.23,65.66c1.19-1.18.78-1.59.24-2.13s-1-1-2.13.24L74.77,80.34c-1.19,1.18-.78,1.59-.24,2.13S75.48,83.42,76.66,82.23Z"/>
      </g>
    </g>
  </g>
</svg>
