<svg id="ui" xmlns="http://www.w3.org/2000/svg" viewBox="0 0 123 145">
  <defs>
    <style>
      .cls-1 {
        fill: #fefefe;
      }
    </style>
  </defs>
  <title>ui</title>
  <g id="settings">
    <path id="small_gear" class="cls-1" d="M46.1,86.56A1.49,1.49,0,0,0,44.77,88v1.5A1.46,1.46,0,0,0,46,91l1.1.14A8.34,8.34,0,0,0,47.92,93l-.71.87a1.47,1.47,0,0,0,.09,2l1,1.07a1.48,1.48,0,0,0,2,.13l.88-.68a8.53,8.53,0,0,0,2,.86l.12,1.13a1.46,1.46,0,0,0,1.45,1.32l1.49,0a1.47,1.47,0,0,0,1.48-1.29l.14-1.07a8.57,8.57,0,0,0,2.12-.83l.83.67a1.47,1.47,0,0,0,2-.09l1.07-1a1.48,1.48,0,0,0,.13-2l-.63-.82a8.66,8.66,0,0,0,.9-2.07l1-.1a1.47,1.47,0,0,0,1.32-1.45l0-1.49a1.47,1.47,0,0,0-1.29-1.48l-1-.13a8.89,8.89,0,0,0-.8-2.06l.59-.73a1.47,1.47,0,0,0-.09-2l-1-1.07a1.47,1.47,0,0,0-2-.13l-.71.54a9.09,9.09,0,0,0-2.15-.93l-.1-.92A1.47,1.47,0,0,0,56.56,78H55.07a1.46,1.46,0,0,0-1.48,1.28l-.12.92a8.8,8.8,0,0,0-2.22.91l-.74-.6a1.47,1.47,0,0,0-2,.09l-1.07,1.05a1.47,1.47,0,0,0-.14,2l.63.81a8.9,8.9,0,0,0-.84,2.07Zm9.63-1.68a3.88,3.88,0,1,1-3.93,3.83A3.89,3.89,0,0,1,55.73,84.88Z"/>
    <path id="medium_gear" class="cls-1" d="M85.2,66l-1.86-1.57a1.48,1.48,0,0,0-2,0l-1,1a11,11,0,0,0-2.74-.88l-.29-1.42A1.47,1.47,0,0,0,75.76,62l-2.43.21A1.47,1.47,0,0,0,72,63.61l0,1.44a10.7,10.7,0,0,0-2.61,1.38l-1.23-.82a1.48,1.48,0,0,0-1.94.28l-1.57,1.87a1.48,1.48,0,0,0,0,2l1.08,1.14a11,11,0,0,0-.79,2.62l-1.54.31a1.49,1.49,0,0,0-1.18,1.57l.21,2.43a1.47,1.47,0,0,0,1.42,1.35l1.66,0a11.45,11.45,0,0,0,1.17,2.25l-.92,1.39a1.48,1.48,0,0,0,.27,2l1.86,1.56a1.47,1.47,0,0,0,2,0l1.22-1.14a10.85,10.85,0,0,0,2.49.82l.34,1.66a1.49,1.49,0,0,0,1.57,1.18l2.42-.21a1.46,1.46,0,0,0,1.35-1.42l.06-1.63a10.6,10.6,0,0,0,2.49-1.26l1.34.89a1.48,1.48,0,0,0,1.94-.28L86.62,83a1.47,1.47,0,0,0-.05-2l-1.08-1.14a10.36,10.36,0,0,0,.85-2.63L87.82,77A1.48,1.48,0,0,0,89,75.44L88.79,73a1.48,1.48,0,0,0-1.42-1.35l-1.48,0a10.71,10.71,0,0,0-1.24-2.43L85.46,68A1.47,1.47,0,0,0,85.2,66ZM76.06,80a4.77,4.77,0,1,1,4.34-5.15A4.77,4.77,0,0,1,76.06,80Z"/>
    <path id="large_gear" class="cls-1" d="M37.61,65.15A13.46,13.46,0,0,0,38.81,68l-1.45,1.82a1.49,1.49,0,0,0,.12,2L40,74.29a1.48,1.48,0,0,0,2,.11L43.76,73a13.21,13.21,0,0,0,3,1.25L47,76.55a1.48,1.48,0,0,0,1.48,1.32H52a1.49,1.49,0,0,0,1.48-1.32l.26-2.25A13.42,13.42,0,0,0,56.9,73l1.75,1.39a1.5,1.5,0,0,0,2-.11l2.49-2.49a1.5,1.5,0,0,0,.12-2L61.87,68.1A13.15,13.15,0,0,0,63.18,65l2.1-.24a1.5,1.5,0,0,0,1.32-1.48V59.73a1.5,1.5,0,0,0-1.32-1.48L63.21,58A13.13,13.13,0,0,0,62,54.93l1.28-1.61a1.5,1.5,0,0,0-.11-2l-2.49-2.49a1.5,1.5,0,0,0-2-.11L57.09,50a13.57,13.57,0,0,0-3.24-1.36l-.24-2a1.49,1.49,0,0,0-1.48-1.32H48.61a1.49,1.49,0,0,0-1.48,1.32l-.24,2A13.33,13.33,0,0,0,43.57,50L42,48.74a1.5,1.5,0,0,0-2,.11l-2.49,2.49a1.5,1.5,0,0,0-.12,2L38.72,55a13,13,0,0,0-1.23,3.11l-2.17.25A1.5,1.5,0,0,0,34,59.88V63.4a1.5,1.5,0,0,0,1.32,1.49Zm12.76-9.53a5.83,5.83,0,1,1-5.82,5.83A5.84,5.84,0,0,1,50.37,55.62Z"/>
  </g>
</svg>
