<svg xmlns="http://www.w3.org/2000/svg" viewBox="0 0 123 145">
  <defs>
    <style>
      .cls-1 {
        fill: #fefefe;
      }
    </style>
  </defs>
  <title>ui</title>
  <g id="settings">
    <g id="unmute_button">
      <path id="megaphone" class="cls-1" d="M55.19,82.21H33.39a.89.89,0,0,1-.89-.89V62.68a.89.89,0,0,1,.89-.89h21.8a.9.9,0,0,0,.59-.22L71,49.12a.89.89,0,0,1,1.48.67V94.21a.89.89,0,0,1-1.48.67L55.78,82.43A.9.9,0,0,0,55.19,82.21Z"/>
      <path id="outer_wave" class="cls-1" d="M82.26,49.55a1.65,1.65,0,0,1,1.87.94,38.59,38.59,0,0,1,0,43,1.65,1.65,0,0,1-1.87.94,1.15,1.15,0,0,1-.66-1.62c1.6-3.06,6.28-10.66,6.28-20.83,0-3.26,0-9.35-5.92-20.23C81.28,50.52,81.62,49.75,82.26,49.55Z"/>
      <path id="inner_wave" class="cls-1" d="M81.12,58.19A38.48,38.48,0,0,1,82.7,80.62,39.75,39.75,0,0,1,81,86.19C80,88.55,77,88,78.34,85.08A36.29,36.29,0,0,0,80.88,72a30.39,30.39,0,0,0-.74-7.26,41.16,41.16,0,0,0-1.93-6.11C77.4,56.59,80,55,81.12,58.19Z"/>
    </g>
  </g>
</svg>
