<svg id="igorina" xmlns="http://www.w3.org/2000/svg" viewBox="0 0 706.15 1389.86">
  <defs>
    <style>
      .cls-1 {
        fill: #8b2c25;
      }

      .cls-2, .cls-8 {
        fill: #f2f0f0;
      }

      .cls-3 {
        fill: #e5e5e5;
      }

      .cls-4 {
        fill: #f9f9f9;
      }

      .cls-5 {
        fill: #f3915c;
      }

      .cls-6 {
        fill: #fff;
      }

      .cls-7 {
        fill: #1a4b5b;
      }

      .cls-7, .cls-8 {
        opacity: 0.25;
      }
    </style>
  </defs>
  <title>igorina</title>
  <g id="igorina_front">
    <g id="hair">
      <path class="cls-1" d="M589,198.42c26,260.33-230,313.36-230,313.36s-266.45-55-242.59-308.35C124.73,114.73,231.7,5.71,356.26,5.73,517,5.75,583.88,147.61,589,198.42Z"/>
    </g>
    <g id="suit-2" data-name="suit">
      <path id="right_arm" class="cls-2" d="M560,559.75s151.5,95.5,146,219c-2.78,62.44-104,169-104,169l24-75.08a271.57,271.57,0,0,0-10.5-184Z"/>
      <path id="left_leg" class="cls-2" d="M265.58,1064.75h88s-7.17-9.58-21,100c-3.94,31.2,5.5,89.5,4.72,162-.28,26.22,0,47.61.17,57.2a5.37,5.37,0,0,1-5.37,5.46h-103a16.53,16.53,0,0,1-16.54-16.54v-18.57h0a33.5,33.5,0,0,1,33.5-33.5h4.5l25,3s-20-136.87-20-182.5S265.58,1064.75,265.58,1064.75Z"/>
      <path id="left_arm" class="cls-2" d="M146.38,559.75s-157.51,82.5-146,219c5.24,62.28,105,170,105,170l-25-76.08a271.57,271.57,0,0,1,10.5-184Z"/>
      <g id="right_leg-2" data-name="right_leg">
        <path id="right_leg-3" data-name="right_leg" class="cls-2" d="M445.58,1064.75h-91s19.14,43.93,22,100c1.5,29.5.5,104.5,6.61,159.37.67,6,58.39-.37,58.39-.37s10-114.87,10-160.5S445.58,1064.75,445.58,1064.75Z"/>
        <path id="right_foot" class="cls-3" d="M384.08,1389.25h59.18a7.82,7.82,0,0,0,7.82-7.82v-36.18c.21-23.48-19.77-41.63-41-40-19.24,1.48-35.33,18.85-35,40v35A9,9,0,0,0,384.08,1389.25Z"/>
      </g>
      <g id="globe-2" data-name="globe">
        <g id="globe-3" data-name="globe">
          <circle class="cls-4" cx="353.08" cy="779.25" r="304.5"/>
        </g>
        <path id="globe_band" class="cls-5" d="M52.7,731.7S233,751.06,353.06,752.19c134.34,1.27,300.35-20.49,300.35-20.49,3.71,8.47,6.89,25.23,7.15,44.25.28,20.61-2.35,34.55-6.15,43.22,0,0-188.38,22.68-301.35,22.53S51.7,819.17,51.7,819.17c-3.57-9.26-6.2-22.68-6.13-42.2C45.64,757.94,49.17,740.87,52.7,731.7Z"/>
      </g>
    </g>
    <g id="head-2" data-name="head">
      <path id="throat" class="cls-6" d="M318.08,417.75h70s-2,45.75-2,61,2,61,2,61-13.5,4.5-35,4-35-4-35-4,2-45.75,2-61S318.08,417.75,318.08,417.75Z"/>
      <path id="collar" class="cls-5" d="M319,454.26C308.59,457,301.1,461,293.09,466c-15.59,9.72-25.51,22.25-25.51,29,0,14.85,10.17,28.28,26,38s37.34,15.74,60,15.74,43.89-6,59.48-15.74,25.52-23.16,25.52-38c0-8.75-10.18-19.28-26-29-7.39-4.54-16.1-9.27-25.48-12l-.5,23.21c5,1,15,3,16.5,8.84,2.19,8.54-5.09,17.62-14.36,23.4s-21.89,9.36-35.35,9.36-26.23-3.58-35.64-9.36-18.13-15.29-14.65-23.4c2.5-5.84,7.5-7.84,16.5-8.84Z"/>
      <g id="face">
        <path class="cls-6" d="M501.35,292a148.37,148.37,0,1,1-296.74,0c0-60.6,148.47-191.06,148.47-191.06S501.35,222.36,501.35,292Z"/>
      </g>
      <path id="smile" d="M319.51,364.75h0a117,117,0,0,0,67,0h0v3h0a117,117,0,0,1-67,0h0v-3Z"/>
      <g id="left_eye">
        <circle cx="386.41" cy="254.25" r="12.5"/>
      </g>
      <g id="right_eye">
        <circle cx="319.74" cy="254.25" r="12.5"/>
      </g>
    </g>
    <g id="helmet-3" data-name="helmet">
      <circle id="helmet-4" data-name="helmet" class="cls-7" cx="353.08" cy="259.75" r="260"/>
      <path id="helmet_shine" class="cls-8" d="M111.36,224.15c14,46.2,24.52,82.46,45.43,118.69s54.78,72.87,80.07,98.68c-11.37-3-72.14-20.55-108-83.12C93.26,296.39,108.27,235.69,111.36,224.15Z"/>
    </g>
  </g>
</svg>
