<svg id="igorina" xmlns="http://www.w3.org/2000/svg" viewBox="0 0 706.15 610.86">
  <defs>
    <style>
      .cls-1 {
        fill: #8b2c25;
      }

      .cls-2, .cls-8 {
        fill: #f2f0f0;
      }

      .cls-3 {
        fill: #e5e5e5;
      }

      .cls-4 {
        fill: #f9f9f9;
      }

      .cls-5 {
        fill: #f3915c;
      }

      .cls-6 {
        fill: #fff;
      }

      .cls-7 {
        fill: #1a4b5b;
      }

      .cls-7, .cls-8 {
        opacity: 0.25;
      }
    </style>
  </defs>
  <title>igorina</title>
  <g id="igorina_dead">
    <g id="hair">
      <path class="cls-1" d="M588.8,267.51c26,260.33-230,343.35-230,343.35s-262-102-242.59-338.35c7.3-88.78,115.32-197.71,239.89-197.69C516.8,74.84,583.72,216.69,588.8,267.51Z"/>
    </g>
    <path id="right_arm" class="cls-2" d="M559.85,90.86s151.5,95.5,146,219c-2.78,62.44-104,169-104,169l24-75.07a271.66,271.66,0,0,0-10.5-184.06Z"/>
    <path id="left_leg" class="cls-2" d="M265.42,286.25h88s-7.16-9.58-21,100c-3.93,31.2,5.5,89.5,4.73,162-.28,26.22,0,47.61.16,57.2a5.36,5.36,0,0,1-5.36,5.46H229a16.54,16.54,0,0,1-16.54-16.54V575.75h0a33.5,33.5,0,0,1,33.5-33.5h4.5l25,3s-20-136.87-20-182.5S265.42,286.25,265.42,286.25Z"/>
    <path id="left_arm" class="cls-2" d="M146.22,92.86s-157.5,82.5-146,219c5.25,62.28,105,170,105,170l-25-76.07a271.6,271.6,0,0,1,10.5-184.06Z"/>
    <path id="right_leg" class="cls-2" d="M445.42,348.91h-91s19.15,43.93,22,100c1.5,29.5.5,104.5,6.62,159.37.67,6,58.38-.37,58.38-.37s10-114.87,10-160.5S445.42,348.91,445.42,348.91Z"/>
    <path id="right_foot" class="cls-3" d="M383.93,610.86h59.18a7.82,7.82,0,0,0,7.82-7.82V566.86c.21-23.48-19.77-41.63-41-40-19.24,1.48-35.34,18.86-35,40v35A9,9,0,0,0,383.93,610.86Z"/>
    <g id="globe">
      <circle class="cls-4" cx="352.92" cy="306.36" r="304.5"/>
    </g>
    <path id="globe_band" class="cls-5" d="M52.55,260.86s180.26,19.36,300.36,20.49c134.34,1.27,300.35-20.49,300.35-20.49,3.71,8.47,6.89,25.23,7.15,44.25.28,20.6-2.35,34.54-6.15,43.21,0,0-188.38,22.68-301.35,22.54S51.55,348.32,51.55,348.32c-3.57-9.25-6.2-22.67-6.13-42.19C45.49,287.09,49,270,52.55,260.86Z"/>
    <path id="throat" class="cls-6" d="M317.92,484.82h70s-2,45.75-2,61,2,61,2,61-13.5,4.5-35,4-35-4-35-4,2-45.75,2-61S317.92,484.82,317.92,484.82Z"/>
    <path id="collar" class="cls-5" d="M318.85,516.37c-10.41,2.73-17.91,6.74-25.91,11.74-15.59,9.72-25.52,22.25-25.52,29,0,14.85,10.18,28.28,26,38s37.34,15.74,60,15.74,43.9-6,59.49-15.74,25.51-23.16,25.51-38c0-8.75-10.17-19.28-26-29-7.39-4.54-16.1-9.27-25.49-12l-.5,23.21c5,1,15,3,16.5,8.84,2.2,8.55-5.08,17.62-14.35,23.4S366.68,581,353.22,581s-26.23-3.58-35.65-9.36-18.12-15.29-14.65-23.4c2.5-5.84,7.5-7.84,16.5-8.84Z"/>
    <g id="face">
      <path class="cls-6" d="M501.2,462.49a148.37,148.37,0,1,1-296.74,0c0-60.6,148.46-191.06,148.46-191.06S501.2,392.84,501.2,462.49Z"/>
    </g>
    <path id="smile" d="M319.35,603h0a117,117,0,0,0,66.95,0h0v3h0a117,117,0,0,1-66.95,0h0v-3Z"/>
    <g id="left_eye">
      <circle cx="386.26" cy="598.36" r="12.5"/>
    </g>
    <g id="right_eye">
      <circle cx="319.59" cy="598.36" r="12.5"/>
    </g>
    <g id="helmet">
      <circle id="helmet-2" data-name="helmet" class="cls-7" cx="352.92" cy="350.86" r="260"/>
      <path id="helmet_shine" class="cls-8" d="M121.21,332.15c14,46.2,24.51,82.46,45.43,118.69s54.78,72.87,80.07,98.68c-11.37-3-72.14-20.55-108-83.12C103.11,404.39,118.12,343.69,121.21,332.15Z"/>
    </g>
  </g>
</svg>
