<svg id="igorina" xmlns="http://www.w3.org/2000/svg" viewBox="0 0 902 1389.86">
  <defs>
    <style>
      .cls-1, .cls-9 {
        fill: #f2f0f0;
      }

      .cls-2 {
        fill: #e5e5e5;
      }

      .cls-3 {
        fill: #dbdbdb;
      }

      .cls-4 {
        fill: #f3915c;
      }

      .cls-5 {
        fill: #f9f9f9;
      }

      .cls-6 {
        fill: #fff;
      }

      .cls-7 {
        fill: #8b2c25;
      }

      .cls-8 {
        fill: #1a4b5b;
      }

      .cls-8, .cls-9 {
        opacity: 0.25;
      }
    </style>
  </defs>
  <title>igorina</title>
  <g id="igorina_back">
    <g id="suit">
      <path id="left_leg" class="cls-1" d="M451.42,1064.75h-88s7.17-9.58,21,100c3.94,31.2-5.5,89.5-4.72,162,.28,26.22,0,47.61-.17,57.2a5.37,5.37,0,0,0,5.37,5.46h103a16.53,16.53,0,0,0,16.54-16.54v-18.57h0a33.5,33.5,0,0,0-33.5-33.5h-4.5l-25,3s20-136.87,20-182.5S451.42,1064.75,451.42,1064.75Z"/>
      <path id="left_arm" class="cls-1" d="M147.22,559.75s-157.5,82.5-146,219c5.25,62.28,105,170,105,170l-25-76.08a271.57,271.57,0,0,1,10.5-184Z"/>
      <g id="right_leg">
        <path id="right_foot" class="cls-2" d="M332.92,1389.25H273.74a7.82,7.82,0,0,1-7.82-7.82v-36.18c-.21-23.48,19.77-41.63,41-40,19.24,1.48,35.33,18.85,35,40v35A9,9,0,0,1,332.92,1389.25Z"/>
        <path id="right_leg-2" data-name="right_leg" class="cls-1" d="M271.42,1064.75h91s-19.14,43.93-22,100c-1.5,29.5-1.22,166-2.61,224.37,0,.53-69.39-.37-69.39-.37s-3-179.87-3-225.5S271.42,1064.75,271.42,1064.75Z"/>
      </g>
      <g id="shooter_arm">
        <path id="right_arm" class="cls-1" d="M558.2,563.75H743.26a47.94,47.94,0,0,0,47.94-47.94l5-93.06h86l2,129.53c0,56-65.44,118.1-121.47,119.47-51.17,1.25-204.53,2-204.53,2Z"/>
        <g id="right_hand">
          <path class="cls-3" d="M790.88,297.2,815.48,285a5.22,5.22,0,0,1,5.86-.52l25.74,23.3a5.24,5.24,0,0,1,.81,8.6l-2.9,2.41a5.26,5.26,0,0,1-6.36.27l-17.14-15.3c-6-4.18-13.21-.32-13.21-.32l-10.4,6.39c-6.33,4.76-11.06,5.57-13.68,1.93C781.39,307.85,783.13,301.27,790.88,297.2Z"/>
          <path class="cls-2" d="M777.2,287.86l29-20.6a15.93,15.93,0,0,1,17.51-.21l21.34,21.68,3-116.73c-1.44-11,6.85-19.39,14.14-19.25s15,8.54,13.5,19.25l-3,179.75H845.06V327.16l-23.34-35a8.19,8.19,0,0,0-9-.63l-20.4,10.61c-9,6.07-17.85,4.21-20.08.63C770.34,299.77,772.47,292.86,777.2,287.86Z"/>
          <path class="cls-1" d="M800,375.06l-34.78-78.3c-2.43-7.43.06-15,5-18,6.41-3.89,16.44.08,21.78,9.84,19.22,35.16,26.22,42.16,43.77,72.58l7-173.42c.45-16,7.28-21.09,14.45-21s15.51,9.08,14,21c0,95-3,101-3,196Z"/>
          <circle class="cls-1" cx="839.2" cy="378.75" r="62"/>
        </g>
      </g>
      <path id="collar" class="cls-4" d="M319.85,548.53c-10.41-2.72-17.91-6.74-25.91-11.73-15.59-9.73-25.52-22.26-25.52-29,0-14.84,10.18-28.28,26-38s37.34-15.75,60-15.75,43.9,6,59.49,15.75,25.51,23.16,25.51,38c0,8.75-10.17,19.28-26,29-7.39,4.54-16.1,9.26-25.49,12l-.5-23.21c5-1,15-3,16.5-8.84,2.2-8.54-5.08-17.62-14.35-23.4S367.68,484,354.22,484s-26.23,3.57-35.65,9.35-18.12,15.3-14.65,23.4c2.5,5.84,7.5,7.84,16.5,8.84Z"/>
      <g id="globe">
        <g id="globe-2" data-name="globe">
          <circle class="cls-5" cx="353.92" cy="779.25" r="304.5"/>
        </g>
        <path id="globe_band" class="cls-4" d="M53.55,731.7s180.26,19.36,300.36,20.49c134.34,1.27,300.35-20.49,300.35-20.49,3.71,8.47,6.89,25.23,7.15,44.25.28,20.61-2.35,34.55-6.15,43.22,0,0-188.38,22.68-301.35,22.53S52.55,819.17,52.55,819.17c-3.57-9.26-6.2-22.68-6.13-42.2C46.49,757.94,50,740.87,53.55,731.7Z"/>
      </g>
    </g>
    <g id="head">
      <path id="smile" d="M320.35,364.75h0a117,117,0,0,0,66.95,0h0v3h0a117,117,0,0,1-66.95,0h0v-3Z"/>
      <g id="left_eye">
        <circle cx="387.26" cy="254.25" r="12.5"/>
      </g>
      <g id="right_eye">
        <circle cx="320.59" cy="254.25" r="12.5"/>
      </g>
      <g id="face">
        <path class="cls-6" d="M502.2,292a148.37,148.37,0,1,1-296.74,0c0-60.6,148.46-191.06,148.46-191.06S502.2,222.36,502.2,292Z"/>
      </g>
      <g id="hair">
        <path class="cls-7" d="M589.8,198.42c26,260.33-232,313.36-232,313.36s-263.61-46-240.59-308.35C125,114.68,232.54,5.71,357.11,5.73,517.8,5.75,584.72,147.61,589.8,198.42Z"/>
      </g>
    </g>
    <g id="helmet-2" data-name="helmet">
      <circle id="helmet-3" data-name="helmet" class="cls-8" cx="353.92" cy="259.75" r="260"/>
      <path id="helmet_shine" class="cls-9" d="M115.06,234.15c14,46.2,24.51,82.46,45.43,118.69s54.77,72.87,80.07,98.68c-11.37-3-72.15-20.55-108-83.12C97,306.39,112,245.69,115.06,234.15Z"/>
    </g>
  </g>
</svg>
