<svg xmlns="http://www.w3.org/2000/svg" viewBox="0 0 996.52 1511.57">
  <defs>
    <style>
      .cls-1 {
        fill: #1a2424;
      }

      .cls-2 {
        fill: #bfbfbf;
      }

      .cls-3 {
        fill: #042d3e;
      }
    </style>
  </defs>
  <title>pinhead</title>
  <g id="pinhead_back">
    <g id="body">
      <g id="suit-2" data-name="suit">
        <path class="cls-1" d="M282.88,1506.42a4.68,4.68,0,0,0,4.44,6.15h422a4.68,4.68,0,0,0,4.44-6.15L498.33,680.57Z"/>
      </g>
      <g id="right_arm-2" data-name="right_arm">
        <path id="right_hand" class="cls-2" d="M812.54,1003.55l46.38,44.93,62.66-5.48c7,.13,33.71.85,34.24,5.71.49,4.52-21.9,10.47-29.4,12.37l-48.51,5.33,86.63,44.67c4.12,2.63,34.46,22.18,31.81,27.69s-36.15-5.7-40.91-7.3L867.82,1088l66.92,68.17c18.46,24.94,19.48,30.79,18,32.16s-7.56.14-34.58-22q-32.87-33.58-65.74-67.18l12.23,40.3c.92,5.63,4.07,26,.2,27.19-4.15,1.3-14.23-20.21-16.31-24.7l-21.78-62.31L781,1041.15Z"/>
        <g id="right_sleeve">
          <path class="cls-1" d="M907.88,930.24a16.5,16.5,0,0,1,4.29,26.43L746.23,1162.61,504.29,728.54Z"/>
        </g>
      </g>
      <g id="left_arm-2" data-name="left_arm">
        <path id="left_hand" class="cls-2" d="M184,995.55l-46.39,44.93L74.94,1035c-7,.13-33.71.85-34.24,5.71-.5,4.52,21.9,10.47,29.39,12.37l48.52,5.33L32,1103.08c-4.12,2.63-34.47,22.18-31.82,27.69s36.16-5.7,40.92-7.3L128.7,1080l-66.92,68.17c-18.47,24.94-19.48,30.79-18.06,32.16s7.57.14,34.58-22l65.75-67.18-12.23,40.3c-.92,5.63-4.07,26-.21,27.19,4.16,1.3,14.24-20.21,16.31-24.7l21.78-62.31,45.82-38.44Z"/>
        <g id="left_sleeve">
          <path class="cls-1" d="M87.78,930.24a16.5,16.5,0,0,0-4.29,26.43l165.93,205.94,242-434.07Z"/>
        </g>
      </g>
    </g>
    <g id="face">
      <path class="cls-2" d="M365,1.08c39.87,3,105.37,7.49,133.29,7.49h1l-2.08,45-5-5,8,79-2-66,6,8L503,8.53c28.89-.42,86.24-4.33,124.18-7.12a33.26,33.26,0,0,1,35.69,34.4c-2.75,74.8-8.6,241.77-8.6,307.76,0,64.06,4.43,213.38,7.39,306.1a88.45,88.45,0,0,1-76.74,90.51c-33.12,4.41-68.14,8.39-86.65,8.39-18.78,0-54.54-4.09-88.07-8.57a86.91,86.91,0,0,1-75.37-88.91c3-92.61,7.44-243.13,7.44-307.52,0-67.32-6.09-239.71-8.77-312.16A29.33,29.33,0,0,1,365,1.08Z"/>
    </g>
    <g id="backpack-2" data-name="backpack">
      <polygon class="cls-3" points="498.23 1070.61 604.3 964.54 710.37 858.48 286.29 646.53 498.23 1070.61"/>
      <polygon class="cls-3" points="286.29 858.48 392.36 964.54 498.43 1070.61 710.37 646.53 286.29 858.48"/>
    </g>
  </g>
</svg>
