<svg xmlns="http://www.w3.org/2000/svg" viewBox="0 0 996.52 1511.57">
  <defs>
    <style>
      .cls-1 {
        fill: #042d3e;
      }

      .cls-2 {
        fill: #1a2424;
      }

      .cls-3 {
        fill: #bfbfbf;
      }

      .cls-4 {
        fill: #f9f9f9;
      }

      .cls-5 {
        opacity: 0.25;
      }
    </style>
  </defs>
  <title>pinhead</title>
  <g id="pinhead_dead">
    <polygon class="cls-1" points="498.28 1511.57 392.22 1405.51 286.15 1299.44 710.23 1087.5 498.28 1511.57"/>
    <polygon class="cls-1" points="710.23 1299.44 604.16 1405.51 498.09 1511.57 286.15 1087.5 710.23 1299.44"/>
    <g id="body">
      <path class="cls-2" d="M713.64,1505.42a4.68,4.68,0,0,1-4.44,6.15h-422a4.68,4.68,0,0,1-4.44-6.15L498.19,679.57Z"/>
    </g>
    <path id="right_hand" class="cls-3" d="M762.54,1326.43l46.38,44.93,62.66-5.49c7,.14,33.71.86,34.24,5.72.49,4.51-21.9,10.46-29.4,12.37l-48.51,5.33L914.54,1434c4.12,2.63,34.46,22.18,31.81,27.69s-36.15-5.7-40.91-7.3l-87.62-43.5L884.74,1479c18.46,25,19.48,30.8,18,32.17s-7.56.14-34.58-22L802.47,1422l12.23,40.29c.92,5.64,4.07,26,.2,27.2-4.15,1.3-14.23-20.21-16.31-24.7l-21.78-62.31L731,1364Z"/>
    <g id="right_sleeve">
      <path class="cls-2" d="M908.74,1279.2a16.51,16.51,0,0,1,4.29,26.44L747.09,1511.57,505.15,1077.5Z"/>
    </g>
    <path id="right_hand-2" data-name="right_hand" class="cls-3" d="M234,1326.43l-46.39,44.93-62.65-5.49c-7,.14-33.71.86-34.24,5.72-.5,4.51,21.9,10.46,29.39,12.37l48.52,5.33L82,1434c-4.12,2.63-34.47,22.18-31.82,27.69s36.16-5.7,40.92-7.3l87.62-43.5L111.78,1479c-18.47,25-19.48,30.8-18.06,32.17s7.57.14,34.58-22L194.05,1422l-12.23,40.29c-.92,5.64-4.07,26-.21,27.2,4.16,1.3,14.24-20.21,16.31-24.7l21.78-62.31L265.52,1364Z"/>
    <g id="left_sleeve">
      <path class="cls-2" d="M88.64,1279.2a16.51,16.51,0,0,0-4.29,26.44l165.93,205.93,242-434.07Z"/>
    </g>
    <g id="face">
      <path class="cls-3" d="M631.4,764.08c-39.87,3-105.37,7.49-133.29,7.49h-1l2.09,45,5-5-8,79,2-66-6,8,1.19-61c-28.9-.42-86.24-4.33-124.18-7.12a33.26,33.26,0,0,0-35.69,34.4c2.75,74.8,8.6,241.77,8.6,307.76,0,64.06-4.43,213.38-7.39,306.1a88.45,88.45,0,0,0,76.73,90.51c33.13,4.41,68.15,8.39,86.66,8.39,18.77,0,54.53-4.09,88.07-8.57a86.92,86.92,0,0,0,75.37-88.91c-3-92.61-7.44-243.13-7.44-307.52,0-67.32,6.09-239.71,8.77-312.16A29.34,29.34,0,0,0,631.4,764.08Z"/>
    </g>
    <path class="cls-1" d="M505.19,1470.57s3,15.38,3,20.5-3,20.5-3,20.5,6.05-15.29,6-21C511.14,1485.09,505.19,1470.57,505.19,1470.57Z"/>
    <path class="cls-1" d="M491.19,1470.57s-3,15.38-3,20.5,3,20.5,3,20.5-6.05-15.29-6-21C485.24,1485.09,491.19,1470.57,491.19,1470.57Z"/>
    <g id="right_eye">
      <polygon class="cls-4" points="636.47 1428.51 640.1 1470.04 643.74 1511.57 515.58 1480.93 636.47 1428.51"/>
    </g>
    <g id="left_eye">
      <polygon class="cls-4" points="360.87 1428.51 357.24 1470.04 353.6 1511.57 481.76 1480.93 360.87 1428.51"/>
    </g>
    <circle id="right_pupil" class="cls-5" cx="556.69" cy="1499.07" r="12.5"/>
    <circle id="left_pupil" class="cls-5" cx="440.69" cy="1499.07" r="12.5"/>
  </g>
</svg>
