<svg id="pinhead_front" xmlns="http://www.w3.org/2000/svg" viewBox="0 0 996.52 1511.57">
  <defs>
    <style>
      .cls-1 {
        fill: #042d3e;
      }

      .cls-2 {
        fill: #1a2424;
      }

      .cls-3 {
        fill: #bfbfbf;
      }

      .cls-4 {
        fill: #f9f9f9;
      }
    </style>
  </defs>
  <title>pinhead</title>
  <g id="backpack">
    <polygon class="cls-1" points="498.28 1079.61 392.22 973.54 286.15 867.48 710.23 655.53 498.28 1079.61"/>
    <polygon class="cls-1" points="710.23 867.48 604.16 973.54 498.09 1079.61 286.15 655.53 710.23 867.48"/>
  </g>
  <g id="suit">
    <g id="body">
      <path class="cls-2" d="M713.64,1505.42a4.68,4.68,0,0,1-4.44,6.15h-422a4.68,4.68,0,0,1-4.44-6.15L498.19,679.57Z"/>
    </g>
    <g id="right_arm">
      <path id="right_hand" class="cls-3" d="M812.54,994.55l46.38,44.93,62.66-5.48c7,.13,33.71.85,34.24,5.71.49,4.52-21.9,10.47-29.4,12.37l-48.51,5.33,86.63,44.67c4.12,2.63,34.46,22.18,31.81,27.69s-36.15-5.7-40.91-7.3L867.82,1079l66.92,68.17c18.46,24.94,19.48,30.79,18,32.16s-7.56.14-34.58-22q-32.87-33.58-65.74-67.18l12.23,40.3c.92,5.63,4.07,26,.2,27.19-4.15,1.3-14.23-20.21-16.31-24.7l-21.78-62.31L781,1032.15Z"/>
      <g id="right_sleeve">
        <path class="cls-2" d="M908.74,929.24A16.5,16.5,0,0,1,913,955.67L747.09,1161.61,505.15,727.54Z"/>
      </g>
    </g>
    <g id="left_arm">
      <path id="left_hand" class="cls-3" d="M184,1002.55l-46.39,44.93L74.94,1042c-7,.13-33.71.85-34.24,5.71-.5,4.52,21.9,10.47,29.39,12.37l48.52,5.33L32,1110.08c-4.12,2.63-34.47,22.18-31.82,27.69s36.16-5.7,40.92-7.3L128.7,1087l-66.92,68.17c-18.47,24.94-19.48,30.79-18.06,32.16s7.57.14,34.58-22l65.75-67.18-12.23,40.3c-.92,5.63-4.07,26-.21,27.19,4.16,1.3,14.24-20.21,16.31-24.7l21.78-62.31,45.82-38.44Z"/>
      <g id="left_sleeve">
        <path class="cls-2" d="M88.64,929.24a16.5,16.5,0,0,0-4.29,26.43l165.93,205.94,242-434.07Z"/>
      </g>
    </g>
  </g>
  <g id="head">
    <g id="face">
      <path class="cls-3" d="M631.4.08C591.53,3,526,7.57,498.11,7.57h-1l2.09,45,5-5-8,79,2-66-6,8,1.19-61C464.48,7.11,407.14,3.2,369.2.41a33.26,33.26,0,0,0-35.69,34.4c2.75,74.8,8.6,241.77,8.6,307.76,0,64.06-4.43,213.38-7.39,306.1a88.45,88.45,0,0,0,76.73,90.51c33.13,4.41,68.15,8.39,86.66,8.39,18.77,0,54.53-4.09,88.07-8.57a86.92,86.92,0,0,0,75.37-88.91c-3-92.61-7.44-243.13-7.44-307.52,0-67.32,6.09-239.71,8.77-312.16A29.34,29.34,0,0,0,631.4.08Z"/>
    </g>
    <g id="nose">
      <path class="cls-1" d="M505.19,497.07s3,15.38,3,20.5-3,20.5-3,20.5,6.05-15.29,6-21C511.14,511.59,505.19,497.07,505.19,497.07Z"/>
      <path class="cls-1" d="M491.19,497.07s-3,15.38-3,20.5,3,20.5,3,20.5-6.05-15.29-6-21C485.24,511.59,491.19,497.07,491.19,497.07Z"/>
    </g>
    <g id="eyes">
      <g id="right_eye">
        <polygon class="cls-4" points="636.47 378.14 640.1 419.67 643.74 461.2 515.58 430.57 636.47 378.14"/>
      </g>
      <g id="left_eye">
        <polygon class="cls-4" points="360.87 378.13 357.24 419.66 353.6 461.19 481.76 430.55 360.87 378.13"/>
      </g>
      <circle id="right_pupil" class="cls-1" cx="556.69" cy="427.07" r="12.5"/>
      <circle id="left_pupil" class="cls-1" cx="440.69" cy="427.07" r="12.5"/>
    </g>
  </g>
</svg>
