<?xml version="1.0" encoding="utf-8"?>
<!-- Generator: Adobe Illustrator 24.0.2, SVG Export Plug-In . SVG Version: 6.00 Build 0)  -->
<svg version="1.1" id="Layer_1" xmlns="http://www.w3.org/2000/svg" xmlns:xlink="http://www.w3.org/1999/xlink" x="0px" y="0px"
	 viewBox="0 0 250.9 83.5" style="enable-background:new 0 0 250.9 83.5;" xml:space="preserve">
<style type="text/css">
	.st0{fill:#FFFFFF;}
</style>
<title>customerArtboard 1</title>
<g>
	<path class="st0" d="M165.7,58.7c0,0.1,0,1.4,0.1,2.7c0.1,0.8,0.7,1.3,1.5,1.3c0.7-0.1,1.2-0.6,1.3-1.3c0.1-1.3,0.1-2.6,0.1-2.7
		s0-1.4-0.1-2.7c-0.1-0.8-0.7-1.3-1.5-1.3c-0.7,0.1-1.2,0.6-1.3,1.3C165.7,57.3,165.7,58.6,165.7,58.7 M153.7,56.5
		c0,0,0-2.5-1.7-2.5s-1.9,2-1.9,2.5s0.8,0.4,0.8,0.4h1.9C153.8,56.9,153.7,56.5,153.7,56.5 M185.4,56.5c0,0,0-2.5-1.7-2.5
		s-1.8,2-1.8,2.5s0.8,0.4,0.8,0.4h1.9C185.5,56.9,185.4,56.5,185.4,56.5 M224.1,58.7c0-0.1,0-1.4-0.1-2.7c-0.1-0.8-0.7-1.3-1.5-1.3
		c-0.7,0.1-1.2,0.6-1.3,1.3c-0.1,1.3-0.1,2.6-0.1,2.7s0,1.5,0.1,2.9c0,0.6,0.3,1.1,0.9,1.2c0.1,0.1,0.3,0.1,0.5,0.1
		c0.1,0,0.3,0,0.4,0c0.6-0.1,1-0.7,1-1.3C224.1,60.2,224.1,58.8,224.1,58.7 M244.8,54.1v13.7c0,0,0,0.6-0.9,0.6h-3.3
		c-1,0-0.9-0.6-0.9-0.6V56c0,0,0.1-1.3-0.9-1.3c-0.8-0.1-1.5,0.5-1.6,1.3v11.8c0,0,0,0.6-0.9,0.6h-3.6c-1,0-0.9-0.6-0.9-0.6V49.9
		c0-0.5,0.7-0.5,0.7-0.5h4.1c0,0,0.7-0.1,0.7,0.5v1.4c0.3,0,0.6-0.1,0.9-0.3c0.3-0.3,1.6-2.1,3.4-2.1
		C245.2,48.9,244.8,54.1,244.8,54.1 M229.9,59L229.9,59c0,9.5-5.8,9.7-6.8,9.7h-1c-1,0-6.8-0.9-6.8-9.7l0,0c0-10.2,6.5-10,7.1-10
		h0.3C223.4,49,229.9,48.7,229.9,59L229.9,59 M213.9,44.1c0,1.8-1.4,3.3-3.2,3.4c-1.8,0-3.3-1.4-3.4-3.2c0-1.8,1.4-3.3,3.2-3.4
		c0,0,0.1,0,0.1,0C212.4,40.9,213.9,42.4,213.9,44.1 M207.9,49.9c0-0.5,0.7-0.5,0.7-0.5h4c0,0,0.7-0.1,0.7,0.5v17.9
		c0,0,0,0.6-0.9,0.6h-3.6c-1,0-0.9-0.6-0.9-0.6V49.9z M190.5,60.3c-0.2,0.6-1.1,0.5-1.1,0.5h-7.5c0,1.5,0.1,3.2,1.8,3.2
		c0.8,0.1,1.5-0.5,1.6-1.2c0.1-0.5,0.8-0.4,0.8-0.4h3.1c0.7,0,0.7,0.5,0.7,0.5s0.4,5.9-6.5,5.9s-7.3-8.5-7.3-8.5S174.9,49,183.4,49
		S190.6,59.7,190.5,60.3 M158.7,60.3c-0.2,0.6-1.1,0.5-1.1,0.5h-7.5c0,1.5,0.1,3.2,1.8,3.2c0.8,0.1,1.5-0.5,1.6-1.2
		c0.1-0.5,0.8-0.4,0.8-0.4h3.2c0.7,0,0.7,0.5,0.7,0.5s0.4,5.9-6.5,5.9s-7.2-8.5-7.2-8.5S143.1,49,151.6,49S158.9,59.7,158.7,60.3
		 M143.4,54.5c0,0,0,0.5-0.4,0.5s-4.2-0.3-4.2,2.6v10.2c0,0,0,0.6-0.9,0.6h-3.6c-1,0-0.9-0.6-0.9-0.6V49.9c0-0.5,0.7-0.5,0.7-0.5
		h4.1c0,0,0.7-0.1,0.7,0.5v1.4c0.4,0,0.8-0.2,1.1-0.6c0.7-1,1.9-1.7,3.1-1.8c0.3,0,0.4,0.2,0.4,0.5L143.4,54.5z M250.9,73.6V32.3
		l-45.5,4.9v30.5c0,0,0,0.6-0.9,0.6h-3.6c-1,0-0.9-0.6-0.9-0.6V37.9l-1.9,0.2v29.7c0,0,0,0.6-0.9,0.6h-3.6c-1,0-0.9-0.6-0.9-0.6
		V38.7l-26.6,2.9v9.8c0.4,0,0.8-0.2,1.1-0.6c0.6-0.6,1.8-1.8,3.1-1.8s4.8,1,4.8,9.2c0,8.1-3.4,10.6-4.8,10.6c-1,0.1-1.9-0.2-2.7-0.8
		c-1.1-1-1.1-1.1-1.4-1.1c-0.1,0-0.2,0.1-0.2,0.2v0.8c0,0,0,0.6-0.9,0.6h-3.6c-1,0-0.9-0.6-0.9-0.6V42.1l-60.6,6.6v24.9L250.9,73.6z
		"/>
	<path class="st0" d="M209.5,22v10.7l2.4-0.3V22c0,0,0.1-1.3-0.9-1.3C210.3,20.6,209.6,21.2,209.5,22 M193.8,24.6
		c0,0.1,0,1.5,0.1,2.9c0,0.6,0.3,1.1,0.9,1.2c0.1,0.1,0.3,0.1,0.5,0.1c0.1,0,0.2,0,0.4-0.1c0.6-0.1,1-0.7,1-1.3
		c0.1-1.3,0.1-2.8,0.1-2.9s0-1.4-0.1-2.7c0-0.8-0.6-1.4-1.4-1.4c-0.8,0-1.4,0.6-1.4,1.4C193.7,23.2,193.7,24.5,193.8,24.6
		 M103.9,22.4c0,0,0-2.5-1.7-2.5s-1.8,2.1-1.8,2.5s0.8,0.4,0.8,0.4h1.9C104,22.8,103.9,22.4,103.9,22.4 M186.9,10.1
		c0,1.8-1.4,3.3-3.2,3.4c-1.8,0-3.3-1.4-3.4-3.2c0-1.8,1.4-3.3,3.2-3.4c0,0,0,0,0.1,0C185.4,6.9,186.8,8.3,186.9,10.1 M179.5,19.4
		c0,0.3-0.2,0.6-0.5,0.6c0,0-0.1,0-0.1,0h-1.2v13.7c0,0,0,0.6-0.9,0.6h-3.6c-1,0-0.9-0.6-0.9-0.6V20h-1.2c-0.3,0-0.6-0.2-0.6-0.5
		c0,0,0-0.1,0-0.1v-3.5c0-0.3,0.2-0.5,0.5-0.5c0,0,0,0,0,0h1.3v-4.7c0-0.5,0.7-0.5,0.7-0.5h4.1c0,0,0.7-0.1,0.7,0.5v4.7h1.3
		c0.3,0,0.5,0.2,0.5,0.5c0,0,0,0,0,0L179.5,19.4z M168.8,32.5c0,0.3-0.1,0.6-0.2,0.8c-0.6,1.1-2.7,1.2-3.2,1.2c-1,0-6.8,0.4-6.8-9.8
		l0,0c0-10.2,6.5-10,7.1-10c0.8,0,1.5,0.2,2.2,0.6c0.3,0.2,0.5,0.5,0.7,0.8c0.1,0.3,0.2,0.6,0.2,0.8v3.1c0,0.6-0.4,0.4-0.4,0.4
		c-0.4-0.2-0.8-0.3-1.3-0.4c-2.4,0-2.4,4.4-2.4,4.6l0,0c0,0.1,0,4.6,2.4,4.6c0.4,0,0.9-0.2,1.3-0.4c0,0,0.4-0.2,0.4,0.4L168.8,32.5z
		 M157.3,20v13.7c0,0,0,0.6-0.9,0.6H153c-1,0-0.9-0.6-0.9-0.6V22c0,0,0.1-1.3-0.9-1.3c-0.8-0.1-1.5,0.5-1.6,1.3v11.8
		c0,0,0,0.6-0.9,0.6h-3.6c-1,0-0.9-0.6-0.9-0.6V15.8c0-0.5,0.7-0.5,0.7-0.5h4.1c0,0,0.7-0.1,0.7,0.5v1.4c0.3,0,0.6-0.1,0.9-0.3
		c0.3-0.3,1.6-2.1,3.4-2.1C157.7,14.9,157.3,20,157.3,20 M142.8,10.1c0,1.8-1.4,3.3-3.2,3.4c-1.8,0-3.3-1.4-3.4-3.2s1.4-3.3,3.2-3.4
		c0,0,0.1,0,0.1,0C141.3,6.9,142.8,8.3,142.8,10.1 M134.7,19.4c0,0.3-0.2,0.6-0.5,0.6c0,0,0,0-0.1,0h-1.2v13.7c0,0,0,0.6-0.9,0.6
		h-3.6c-1,0-0.9-0.6-0.9-0.6V20h-1.2c-0.3,0-0.6-0.2-0.6-0.5c0,0,0,0,0-0.1v-3.5c0-0.3,0.2-0.5,0.5-0.5c0,0,0,0,0,0h1.3v-4.7
		c0-0.5,0.7-0.5,0.7-0.5h4.1c0,0,0.7-0.1,0.7,0.5v4.7h1.2c0.3,0,0.5,0.2,0.5,0.5c0,0,0,0,0,0L134.7,19.4z M124.6,34.3h-4.9
		c-0.4,0-0.7-0.2-0.8-0.6c-0.3-0.5-1.7-3.7-1.7-3.7c-0.1-0.2-0.2-0.3-0.4-0.3c-0.2,0-0.3,0.1-0.4,0.3c0,0-1.5,3.2-1.7,3.7
		c-0.2,0.3-0.5,0.5-0.8,0.6h-4.9c-0.5,0,0-0.9,0-0.9s4.8-8,5-8.4c0.1-0.2,0.1-0.5,0-0.8l-4.7-8.4c-0.4-0.7,0.7-0.6,0.7-0.6h4.4
		c0.8,0,1,0.5,1,0.5s1.1,2.6,1.3,3s0.3,0.4,0.3,0.4s0.1,0.1,0.3-0.4s1.3-3,1.3-3s0.2-0.5,1-0.5h4.4c0,0,1-0.1,0.6,0.6l-4.7,8.4
		c-0.1,0.2-0.1,0.5,0,0.8c0.2,0.4,5,8.4,5,8.4s0.5,0.9,0,0.9 M109,26.3c-0.2,0.6-1.1,0.6-1.1,0.6h-7.6c0,1.5,0.1,3.2,1.8,3.2
		c0.8,0.1,1.5-0.5,1.6-1.2c0.1-0.5,0.8-0.4,0.8-0.4h3.2c0.7,0,0.7,0.5,0.7,0.5s0.4,5.9-6.5,5.9s-7.3-8.6-7.3-8.6S93.3,15,101.8,15
		s7.3,10.7,7.1,11.3 M136.7,15.8c0-0.5,0.7-0.5,0.7-0.5h4.1c0,0,0.7-0.1,0.7,0.5v17.9c0,0,0,0.6-0.9,0.6h-3.6c-1,0-0.9-0.6-0.9-0.6
		L136.7,15.8L136.7,15.8z M180.8,15.8c0-0.5,0.7-0.5,0.7-0.5h4.1c0,0,0.7-0.1,0.7,0.5v17.9c0,0,0,0.6-0.9,0.6h-3.6
		c-1,0-0.9-0.6-0.9-0.6L180.8,15.8L180.8,15.8z M238.6,29.5V4.6H87.5v41.3l106-11.5c-2-0.5-5.6-2.6-5.6-9.5l0,0
		c0-10.2,6.5-10,7.1-10h0.3c0.7,0,7.1-0.3,7.1,10l0,0c0,5.6-2,7.9-3.8,9l5.4-0.6V15.9c0-0.5,0.7-0.5,0.7-0.5h4.1
		c0,0,0.7-0.1,0.7,0.5v1.4c0.3,0,0.6-0.1,0.9-0.3c0.3-0.3,1.6-2.1,3.4-2.1c3.8,0,3.4,5.1,3.4,5.1v11.8L238.6,29.5z"/>
	<path class="st0" d="M77.1,41.7c0,9-3.5,17.7-9.7,24.3L46.3,41.7l21.1-24.3C73.7,24,77.2,32.7,77.1,41.7 M41.8,6.4
		c8.5,0,16.7,3.1,23.1,8.6H18.6C25.1,9.4,33.3,6.4,41.8,6.4 M16.1,17.4l21.2,24.3L16.2,66C3.2,52.4,3.2,31,16.1,17.4 M41.8,36.5
		L28.7,21.5h26.2L41.8,36.5z M41.8,46.9L54.9,62H28.7L41.8,46.9z M41.8,77.1c-8.5,0-16.7-3.1-23.1-8.6h46.3
		C58.5,74,50.3,77.1,41.8,77.1 M83.5,41.7C83.5,18.7,64.8,0,41.7,0C18.7,0,0,18.7,0,41.8c0,23.1,18.7,41.7,41.8,41.7
		C64.8,83.5,83.5,64.8,83.5,41.7"/>
</g>
</svg>
