<?xml version="1.0" encoding="utf-8"?>
<!-- Generator: Adobe Illustrator 24.0.2, SVG Export Plug-In . SVG Version: 6.00 Build 0)  -->
<svg version="1.1"
	 id="svg928" xmlns:cc="http://creativecommons.org/ns#" xmlns:dc="http://purl.org/dc/elements/1.1/" xmlns:rdf="http://www.w3.org/1999/02/22-rdf-syntax-ns#" xmlns:svg="http://www.w3.org/2000/svg"
	 xmlns="http://www.w3.org/2000/svg" xmlns:xlink="http://www.w3.org/1999/xlink" x="0px" y="0px" viewBox="0 0 1000 1000"
	 style="enable-background:new 0 0 1000 1000;" xml:space="preserve">
<style type="text/css">
	.st0{fill:#FFFFFF;}
</style>
<g id="layer1" transform="translate(0,-32.41665)">
	<path id="path381-2-2-4" class="st0" d="M500,53.4c-264.5,0-479,214.4-479,479c0,264.5,214.4,479,479,479c0,0,0,0,0,0
		c264.5,0,479-214.4,479-479c0,0,0,0,0,0C979,267.9,764.5,53.4,500,53.4C500,53.4,500,53.4,500,53.4z M500,123.1
		c226,0,409.3,183.2,409.3,409.3c0,0,0,0,0,0c0,226-183.2,409.3-409.3,409.3c0,0,0,0,0,0c-226,0-409.3-183.2-409.3-409.3
		c0,0,0,0,0,0C90.7,306.4,274,123.1,500,123.1L500,123.1z"/>
	<path id="path398-7-8-5" class="st0" d="M812.9,226.6l-625.9,1.1l267,304.7l-267,304.7l625.9,1.1L545.8,532.4L812.9,226.6z
		 M339,296.2h320.2L499.2,480.4L339,296.2z M500,584.9l160.1,184.2H339.9L500,584.9z"/>
</g>
</svg>
