<svg id="logo" xmlns="http://www.w3.org/2000/svg" viewBox="0 0 800 518">
  <defs>
    <style>
      .cls-1, .cls-3 {
        fill: none;
        stroke: #fff;
        stroke-miterlimit: 10;
      }

      .cls-1 {
        stroke-width: 5px;
      }

      .cls-2 {
        fill: #fff;
      }

      .cls-3 {
        stroke-width: 10px;
      }
    </style>
  </defs>
  <title>whiteArtboard 1</title>
  <polyline id="tri_bottom" class="cls-1" points="618.5 437.5 658.5 517.5 141.5 517.5 181.5 437.5"/>
  <g id="NATACHAJAY">
    <g>
      <path class="cls-2" d="M29.29,301.35l-.18.18-1.33-6.3a4.72,4.72,0,0,0-4.9-3.5H11.14v79.79H29.29Z"/>
      <path class="cls-2" d="M78.91,308.49a27.24,27.24,0,0,0-5.13-9.57,23,23,0,0,0-8.44-6.22,28.71,28.71,0,0,0-11.58-2.21,33.59,33.59,0,0,0-7.47.78,28.61,28.61,0,0,0-6.41,2.25l-.59.31v13.51a19.9,19.9,0,0,1,8.63-1.92q6.78,0,10.15,4t3.39,11.32v50.78h19.2V320.74A40.56,40.56,0,0,0,78.91,308.49Z"/>
    </g>
    <g>
      <path class="cls-2" d="M160.1,308.68a27.52,27.52,0,0,0-5.79-9.76,26.51,26.51,0,0,0-8.09-5.8v72.2l.62,2.08a5.26,5.26,0,0,0,2.33,3.3,9.23,9.23,0,0,0,4.28.82h8.63V321.13A37.63,37.63,0,0,0,160.1,308.68Z"/>
      <path class="cls-2" d="M105.08,311.48a5.51,5.51,0,0,0,3.34,1,8.67,8.67,0,0,0,4.28-1.08q2-1.1,4.24-2.45a29.58,29.58,0,0,1,5.4-2.45,23.74,23.74,0,0,1,7.78-1.09,14.92,14.92,0,0,1,6.1,1.16V290.43c-1.2-.11-2.42-.18-3.69-.18q-19.44,0-33.2,12.6l3.5,6.15A8,8,0,0,0,105.08,311.48Z"/>
      <path class="cls-2" d="M136.22,356.71c-.44.24-.87.47-1.32.69a21,21,0,0,1-4.7,1.61,26.45,26.45,0,0,1-5.45.53,12.9,12.9,0,0,1-7.81-2.19c-2-1.46-3-3.89-3-7.29a8.5,8.5,0,0,1,1.43-4.77,11.72,11.72,0,0,1,4.86-3.84,36.72,36.72,0,0,1,9.06-2.7,59.49,59.49,0,0,1,6.92-.83V326.13a80.94,80.94,0,0,0-15.66,2.16,50.26,50.26,0,0,0-14.7,5.89,22.37,22.37,0,0,0-7.89,8,18.56,18.56,0,0,0-2.38,8.93,24.14,24.14,0,0,0,1.71,9.44,18.55,18.55,0,0,0,4.79,6.79,20,20,0,0,0,7.35,4.1,30.53,30.53,0,0,0,9.33,1.36,39.43,39.43,0,0,0,7.77-.7,29.83,29.83,0,0,0,6.61-2.1c1-.46,2.06-1,3.07-1.56Z"/>
    </g>
    <g>
      <path class="cls-2" d="M222.35,356.35a6.88,6.88,0,0,0-1.17-1.28,2.23,2.23,0,0,0-1.4-.43,2.74,2.74,0,0,0-1.4.43c-.46.29-1,.58-1.59.89a15,15,0,0,1-2.1.9,9.18,9.18,0,0,1-3,.43,6.32,6.32,0,0,1-5-2.1,8.46,8.46,0,0,1-1.87-5.83V306.12h.05V292.43h-.05V267.31H194.9a4.57,4.57,0,0,0-2.84.86,3.86,3.86,0,0,0-1.44,2.41l-4,21.77-12.83,2.1v7.62a3.67,3.67,0,0,0,3.81,4.05h8.08v44.56q0,10.33,5.6,16.21t15.94,5.87A35.7,35.7,0,0,0,218.46,371a28.9,28.9,0,0,0,9.64-5.29Z"/>
      <rect class="cls-2" x="214.9" y="292.43" width="10.95" height="13.69"/>
    </g>
    <g>
      <path class="cls-2" d="M301.71,308.68a27.54,27.54,0,0,0-5.8-9.76,26,26,0,0,0-7.13-5.34v74.69a4.65,4.65,0,0,0,2,2.43,9.23,9.23,0,0,0,4.28.82h8.63V321.13A37.63,37.63,0,0,0,301.71,308.68Z"/>
      <path class="cls-2" d="M246.69,311.48a5.51,5.51,0,0,0,3.34,1,8.67,8.67,0,0,0,4.28-1.08c1.29-.73,2.71-1.55,4.24-2.45a29.58,29.58,0,0,1,5.4-2.45,23.7,23.7,0,0,1,7.78-1.09,14.19,14.19,0,0,1,7,1.63V290.53a38.56,38.56,0,0,0-4.64-.28q-19.44,0-33.21,12.6l3.5,6.15A7.87,7.87,0,0,0,246.69,311.48Z"/>
      <path class="cls-2" d="M278.78,356.14a24.11,24.11,0,0,1-2.27,1.26,21.37,21.37,0,0,1-4.7,1.61,26.45,26.45,0,0,1-5.45.53,12.9,12.9,0,0,1-7.81-2.19q-3-2.19-3-7.29a8.51,8.51,0,0,1,1.44-4.77,11.72,11.72,0,0,1,4.86-3.84,36.72,36.72,0,0,1,9.06-2.7,62.16,62.16,0,0,1,7.87-.9V326.08a82.81,82.81,0,0,0-16.62,2.21,50.18,50.18,0,0,0-14.69,5.89,22.32,22.32,0,0,0-7.9,8,18.66,18.66,0,0,0-2.37,8.93,24.14,24.14,0,0,0,1.71,9.44,18.64,18.64,0,0,0,4.78,6.79,20.15,20.15,0,0,0,7.35,4.1,30.53,30.53,0,0,0,9.33,1.36,39.46,39.46,0,0,0,7.78-.7,30,30,0,0,0,6.61-2.1,33.89,33.89,0,0,0,4-2.15Z"/>
    </g>
    <g>
      <path class="cls-2" d="M360.05,305.26a17.76,17.76,0,0,1,3.71.74,25.49,25.49,0,0,1,4.63,2c1.29.76,2.41,1.43,3.34,2a5.34,5.34,0,0,0,2.88.89,3.87,3.87,0,0,0,2.37-.62,9.74,9.74,0,0,0,1.67-1.71l5.06-7a38.36,38.36,0,0,0-12.09-8.25,37,37,0,0,0-11.56-2.71Z"/>
      <path class="cls-2" d="M350,357c-.55-.2-1.1-.41-1.62-.66a16.82,16.82,0,0,1-6.22-5.13,24.28,24.28,0,0,1-3.93-8.36,43.38,43.38,0,0,1-1.36-11.35,44.38,44.38,0,0,1,1.25-11,23.87,23.87,0,0,1,3.77-8.29,16.8,16.8,0,0,1,6.34-5.25c.58-.27,1.18-.51,1.8-.73V290.83a38,38,0,0,0-10.75,2.77,34.05,34.05,0,0,0-12.14,8.59,36.91,36.91,0,0,0-7.42,13,54.42,54.42,0,0,0,.31,33.75,38.88,38.88,0,0,0,7.7,12.95,32.48,32.48,0,0,0,11.39,8A34.56,34.56,0,0,0,350,372.55Z"/>
      <path class="cls-2" d="M379,352.62a3.89,3.89,0,0,0-3.49-1.79,5.11,5.11,0,0,0-3.23,1.13q-1.44,1.13-3.39,2.49a22.84,22.84,0,0,1-4.78,2.49,16.12,16.12,0,0,1-4.05.93v14.39c.51-.06,1-.12,1.54-.2a39.06,39.06,0,0,0,8.28-2.14,37.16,37.16,0,0,0,7.74-4,34.88,34.88,0,0,0,6.92-6.26Z"/>
    </g>
    <g>
      <path class="cls-2" d="M416,300.34l0,0V256H396.77V371.52H416v-57.7l0,0Z"/>
      <path class="cls-2" d="M464.54,308.49a27.41,27.41,0,0,0-5.13-9.57A23.08,23.08,0,0,0,451,292.7a28.71,28.71,0,0,0-11.58-2.21,29.83,29.83,0,0,0-13.15,2.72l-.24.13v13.53a20,20,0,0,1,7.55-1.45q6.76,0,10.15,4t3.38,11.32v50.78h19.21V320.74A40.56,40.56,0,0,0,464.54,308.49Z"/>
    </g>
    <g>
      <path class="cls-2" d="M490.71,311.48a5.52,5.52,0,0,0,3.35,1,8.66,8.66,0,0,0,4.27-1.08q1.95-1.1,4.24-2.45a29.58,29.58,0,0,1,5.4-2.45,23.74,23.74,0,0,1,7.78-1.09,14.14,14.14,0,0,1,7.13,1.67V290.54a37.74,37.74,0,0,0-4.72-.29q-19.44,0-33.21,12.6l3.5,6.15A8,8,0,0,0,490.71,311.48Z"/>
      <path class="cls-2" d="M545.73,308.68a27.39,27.39,0,0,0-5.8-9.76,26,26,0,0,0-7-5.3v74.84a4.56,4.56,0,0,0,1.92,2.24,9.23,9.23,0,0,0,4.28.82h8.63V321.13A37.63,37.63,0,0,0,545.73,308.68Z"/>
      <path class="cls-2" d="M522.88,356.09a23.68,23.68,0,0,1-2.35,1.31,21.2,21.2,0,0,1-4.7,1.61,26.45,26.45,0,0,1-5.45.53,12.9,12.9,0,0,1-7.81-2.19c-2-1.46-3-3.89-3-7.29a8.5,8.5,0,0,1,1.43-4.77,11.72,11.72,0,0,1,4.86-3.84,36.85,36.85,0,0,1,9.06-2.7,63.55,63.55,0,0,1,8-.9V326.08a82.84,82.84,0,0,0-16.7,2.21,50.3,50.3,0,0,0-14.69,5.89,22.48,22.48,0,0,0-7.9,8,18.66,18.66,0,0,0-2.37,8.93,24.14,24.14,0,0,0,1.71,9.44,18.55,18.55,0,0,0,4.79,6.79,20,20,0,0,0,7.35,4.1,30.53,30.53,0,0,0,9.33,1.36,39.43,39.43,0,0,0,7.77-.7,29.83,29.83,0,0,0,6.61-2.1,35.22,35.22,0,0,0,4.1-2.19Z"/>
    </g>
    <path class="cls-2" d="M617.07,291.73v82.51a34.23,34.23,0,0,1-1.36,9.8,21.32,21.32,0,0,1-4.35,8,20.45,20.45,0,0,1-7.85,5.44,31.54,31.54,0,0,1-11.86,2,33.32,33.32,0,0,1-5.06-.35,29.55,29.55,0,0,1-4.74-1.13l.62-10.34a2.32,2.32,0,0,1,1.24-2,11.48,11.48,0,0,1,3.89-.43,17.39,17.39,0,0,0,4.86-.58,6.88,6.88,0,0,0,3.19-1.87,7.36,7.36,0,0,0,1.71-3.38,22.52,22.52,0,0,0,.51-5.21V291.73Z"/>
    <g id="x">
      <line class="cls-3" x1="591.21" y1="280.37" x2="623.61" y2="247.96"/>
      <line class="cls-3" x1="623.61" y1="280.37" x2="591.21" y2="247.96"/>
    </g>
    <g>
      <path class="cls-2" d="M675.21,356.65c-.47.27-.93.52-1.41.75a21,21,0,0,1-4.7,1.61,26.35,26.35,0,0,1-5.44.53,12.93,12.93,0,0,1-7.82-2.19c-2-1.46-3-3.89-3-7.29a8.51,8.51,0,0,1,1.44-4.77,11.59,11.59,0,0,1,4.86-3.84,36.58,36.58,0,0,1,9.06-2.7,58.74,58.74,0,0,1,7.2-.85l.13-11.8a81.69,81.69,0,0,0-16.08,2.19,50.26,50.26,0,0,0-14.7,5.89,22.37,22.37,0,0,0-7.89,8,18.56,18.56,0,0,0-2.38,8.93,24,24,0,0,0,1.72,9.44A18.41,18.41,0,0,0,641,367.3a20.06,20.06,0,0,0,7.35,4.1,30.53,30.53,0,0,0,9.33,1.36,39.43,39.43,0,0,0,7.77-.7,29.83,29.83,0,0,0,6.61-2.1,33.17,33.17,0,0,0,3-1.54Z"/>
      <path class="cls-2" d="M644,311.48a5.54,5.54,0,0,0,3.35,1,8.66,8.66,0,0,0,4.27-1.08q1.95-1.1,4.24-2.45a29.58,29.58,0,0,1,5.4-2.45,23.74,23.74,0,0,1,7.78-1.09,14.51,14.51,0,0,1,6.73,1.45l.18-16.35a38.32,38.32,0,0,0-4.5-.27q-19.44,0-33.2,12.6l3.5,6.15A8,8,0,0,0,644,311.48Z"/>
      <path class="cls-2" d="M699,308.68a27.37,27.37,0,0,0-5.79-9.76,26.21,26.21,0,0,0-7.31-5.42l-.79,71.81.63,2.09a5.26,5.26,0,0,0,2.33,3.3,9.23,9.23,0,0,0,4.28.82H701V321.13A37.63,37.63,0,0,0,699,308.68Z"/>
    </g>
    <g>
      <path class="cls-2" d="M773.46,291.73l-.29,0L727.28,397.57H739a6.77,6.77,0,0,0,4.16-1.05,7.45,7.45,0,0,0,2.22-3.07l43.47-101.72Z"/>
      <path class="cls-2" d="M744.76,332.13,729.6,295.31a7.3,7.3,0,0,0-1.87-2.49,5.29,5.29,0,0,0-3.57-1.09h-16.8l27.56,63.09Z"/>
    </g>
  </g>
  <polyline id="tri_top" class="cls-1" points="516.5 231.5 400 0.5 283.5 231.5"/>
</svg>
