<svg xmlns="http://www.w3.org/2000/svg" viewBox="0 0 1080 1920">
  <defs>
    <style>
      .cls-1 {
        fill: #b2b2b2;
      }

      .cls-2 {
        fill: #bfbfbf;
      }

      .cls-3 {
        fill: #a5a5a5;
      }
    </style>
  </defs>
  <title>_</title>
  <g id="meteor">
    <g>
      <polygon class="cls-1" points="526.5 668 532.5 644 545.5 631 570.5 622 593.5 634 608.5 654 608.5 682 526.5 668"/>
      <polygon class="cls-1" points="480.5 1245 473.5 1257 477.5 1272 484.5 1285 497.5 1298 523.5 1287 532.5 1259 480.5 1245"/>
      <g id="mass">
        <circle class="cls-2" cx="540" cy="962.5" r="308.5"/>
      </g>
      <polygon class="cls-2" points="315.5 767 308.5 734 327.5 720 337.5 720 367.5 735 315.5 767"/>
      <polygon class="cls-2" points="744.5 767 772.5 743 793.5 755 810.5 777 810.5 790 781.5 811 744.5 767"/>
      <path class="cls-2" d="M255.5,1061l-15,16v35l15,17,18,12,30-5Z"/>
      <path class="cls-2" d="M730.5,1193l24,15,31-7,11-8,7-19-5-24-7-33Z"/>
      <path class="cls-1" d="M395.5,753l16-13h27l16,13v15l-11,13-12,9s-8,7-16,0-20-17-20-17Z"/>
      <polygon class="cls-1" points="734.5 980 754.5 963 789.5 953 799.5 966 799.5 992 773.5 998 734.5 980"/>
      <polygon class="cls-1" points="578.5 935 557.5 935 538.5 956 543.5 974 558.5 989 573.5 989 590.5 979 596.5 956 578.5 935"/>
      <polygon class="cls-3" points="308.5 1079 328.5 1128 379.5 1159 422.5 1132 460.5 1079 422.5 1022 378.5 993 342.5 1024 308.5 1079"/>
    </g>
  </g>
</svg>
