<svg xmlns="http://www.w3.org/2000/svg" viewBox="0 0 617 676">
  <defs>
    <style>
      .cls-1 {
        fill: #b2b2b2;
      }

      .cls-2 {
        fill: #bfbfbf;
      }

      .cls-3 {
        fill: #a5a5a5;
      }
    </style>
  </defs>
  <title>meteor_sunburst_gas</title>
  <g id="meteor">
    <g>
      <polygon class="cls-1" points="295.5 46 301.5 22 314.5 9 339.5 0 362.5 12 377.5 32 377.5 60 295.5 46"/>
      <polygon class="cls-1" points="249.5 623 242.5 635 246.5 650 253.5 663 266.5 676 292.5 665 301.5 637 249.5 623"/>
      <g id="mass">
        <circle class="cls-2" cx="309" cy="340.5" r="308.5"/>
      </g>
      <polygon class="cls-2" points="84.5 145 77.5 112 96.5 98 106.5 98 136.5 113 84.5 145"/>
      <polygon class="cls-2" points="513.5 145 541.5 121 562.5 133 579.5 155 579.5 168 550.5 189 513.5 145"/>
      <path class="cls-2" d="M24.5,439l-15,16v35l15,17,18,12,30-5Z"/>
      <path class="cls-2" d="M499.5,571l24,15,31-7,11-8,7-19-5-24-7-33Z"/>
      <path class="cls-1" d="M164.5,131l16-13h27l16,13v15l-11,13-12,9s-8,7-16,0-20-17-20-17Z"/>
      <polygon class="cls-1" points="503.5 358 523.5 341 558.5 331 568.5 344 568.5 370 542.5 376 503.5 358"/>
      <polygon class="cls-1" points="347.5 313 326.5 313 307.5 334 312.5 352 327.5 367 342.5 367 359.5 357 365.5 334 347.5 313"/>
      <polygon class="cls-3" points="77.5 457 97.5 506 148.5 537 191.5 510 229.5 457 191.5 400 147.5 371 111.5 402 77.5 457"/>
    </g>
  </g>
</svg>
