<svg xmlns="http://www.w3.org/2000/svg" viewBox="0 0 666 860">
  <defs>
    <style>
      .cls-1 {
        fill: #d96523;
        opacity: 0.75;
      }

      .cls-2 {
        fill: #ffa21a;
        opacity: 0.8;
      }

      .cls-3 {
        fill: #f9c83e;
      }

      .cls-4 {
        fill: #ffec66;
      }
    </style>
  </defs>
  <title>meteor_sunburst_gas</title>
  <g id="sunburst">
    <polygon class="cls-1" points="551.34 282.47 622.91 397.11 666.43 528.55 626.12 682.13 606.68 764.37 634.34 859.57 509.34 806.42 434.82 753.7 320.46 697.13 193 591.64 169.76 525.33 166.18 260.53 551.34 282.47"/>
    <polygon class="cls-2" points="499.99 365.71 571.67 441.19 596.86 548.59 560.73 655.6 542.9 713.01 557.87 781.94 471.76 738.1 421.46 697.02 343.07 651.28 259.52 582.33 244.54 521.96 254.97 333.86 499.99 365.71"/>
    <polygon class="cls-3" points="486.12 401.71 541.39 464.33 561.11 553.16 533.78 641.45 520.32 688.82 532.05 745.82 465.82 709.28 427.07 675.16 366.76 637.07 302.4 579.8 290.68 529.87 298 374.49 486.12 401.71"/>
    <g id="mass">
      <circle class="cls-4" cx="308.07" cy="308.93" r="308.5"/>
    </g>
  </g>
</svg>
