<svg xmlns="http://www.w3.org/2000/svg" viewBox="0 0 1080 1920">
  <defs>
    <style>
      .cls-1 {
        fill: #d96523;
        opacity: 0.75;
      }

      .cls-2 {
        fill: #ffa21a;
        opacity: 0.8;
      }

      .cls-3 {
        fill: #f9c83e;
      }

      .cls-4 {
        fill: #ffec66;
      }
    </style>
  </defs>
  <title>_</title>
  <g id="sunburst">
    <polygon class="cls-1" points="758.34 933.47 829.91 1048.11 873.43 1179.56 833.12 1333.13 813.68 1415.37 841.34 1510.57 716.34 1457.42 641.82 1404.7 527.46 1348.13 400 1242.64 376.76 1176.33 373.18 911.53 758.34 933.47"/>
    <polygon class="cls-2" points="706.99 1016.72 778.67 1092.19 803.86 1199.59 767.73 1306.6 749.9 1364.01 764.87 1432.94 678.76 1389.1 628.46 1348.02 550.07 1302.28 466.52 1233.33 451.54 1172.96 461.97 984.86 706.99 1016.72"/>
    <polygon class="cls-3" points="693.12 1052.71 748.39 1115.34 768.11 1204.16 740.78 1292.45 727.32 1339.82 739.05 1396.82 672.82 1360.28 634.08 1326.16 573.76 1288.07 509.4 1230.8 497.68 1180.87 505 1025.49 693.12 1052.71"/>
    <g id="mass">
      <circle class="cls-4" cx="515.07" cy="959.93" r="308.5"/>
    </g>
  </g>
</svg>
