<?xml version="1.0" standalone="no"?>
<!DOCTYPE svg PUBLIC "-//W3C//DTD SVG 20010904//EN"
 "http://www.w3.org/TR/2001/REC-SVG-20010904/DTD/svg10.dtd">
<svg version="1.0" xmlns="http://www.w3.org/2000/svg"
 width="496.000000pt" height="496.000000pt" viewBox="0 0 496.000000 496.000000"
 preserveAspectRatio="xMidYMid meet">
<metadata>
Created by potrace 1.11, written by Peter Selinger 2001-2013
</metadata>
<g transform="translate(0.000000,496.000000) scale(0.100000,-0.100000)"
fill="#000000" stroke="none">
<path d="M2750 4953 c-359 -34 -657 -195 -840 -455 -96 -136 -147 -256 -181
-425 -12 -59 -28 -120 -35 -135 -31 -60 -82 -90 -187 -108 -219 -39 -422 -144
-578 -300 -160 -160 -264 -363 -307 -599 -15 -84 -17 -176 -17 -751 0 -597 -2
-662 -18 -734 -36 -157 -67 -222 -216 -456 -149 -235 -217 -390 -228 -521 -5
-61 -3 -72 21 -112 68 -116 327 -276 549 -337 91 -25 122 -25 159 2 72 50 191
245 272 441 43 104 57 129 105 180 80 86 153 101 416 87 377 -20 1023 -6 1183
25 233 45 425 146 572 302 148 156 242 344 290 585 31 154 43 167 202 203 263
59 457 163 615 328 206 216 303 470 303 795 0 160 -5 199 -30 233 l-19 24
-282 5 -281 5 101 84 c288 238 438 486 485 803 12 80 16 189 16 451 0 309 -2
346 -17 358 -22 19 -647 20 -775 1 -350 -51 -593 -197 -840 -505 l-78 -98 0
284 c0 340 5 324 -110 337 -73 9 -180 10 -250 3z m1703 -318 c21 -10 46 -32
55 -49 35 -65 10 -338 -49 -517 -84 -256 -233 -428 -464 -535 -95 -44 -194
-70 -340 -89 -79 -11 -134 -23 -162 -38 -25 -13 -222 -200 -492 -468 l-451
-447 277 -4 c153 -2 289 0 303 5 35 12 66 42 113 112 86 125 210 226 349 282
110 45 187 52 534 53 315 0 322 0 349 -22 26 -20 27 -25 22 -82 -5 -69 -55
-204 -108 -292 -74 -124 -207 -240 -338 -295 -171 -72 -278 -80 -1086 -88
l-670 -6 -69 -33 c-58 -27 -95 -58 -239 -200 -196 -193 -467 -479 -467 -493 0
-5 24 -9 53 -9 28 0 84 -5 122 -11 39 -6 115 -11 170 -11 167 0 248 42 356
188 81 110 117 145 189 183 119 64 172 72 539 82 349 9 392 6 426 -31 28 -31
30 -99 5 -181 -86 -283 -305 -479 -615 -550 -34 -8 -295 -14 -810 -18 l-760
-6 -55 -30 c-32 -18 -69 -49 -90 -77 -19 -26 -98 -169 -174 -318 -97 -188
-149 -280 -172 -300 -60 -53 -148 -52 -209 1 -65 58 -65 125 0 285 83 201 145
313 268 479 32 43 70 101 83 127 54 107 55 114 58 840 3 696 7 779 47 937 53
210 186 370 395 474 159 80 260 97 311 53 l28 -24 0 -354 c0 -390 -5 -429 -65
-550 -49 -97 -97 -155 -197 -235 -52 -41 -110 -96 -128 -121 -59 -79 -65 -116
-65 -386 l0 -241 379 380 c321 321 381 386 390 420 7 26 11 214 12 530 0 270
4 623 8 785 l7 295 32 93 c18 52 44 115 59 140 79 138 197 253 318 313 180 88
307 90 333 7 7 -20 10 -158 8 -358 -3 -364 -11 -419 -72 -545 -44 -89 -97
-151 -194 -225 -98 -74 -144 -128 -171 -199 -20 -52 -21 -73 -20 -286 1 -126
4 -231 6 -233 2 -3 207 195 455 439 298 294 457 458 470 485 14 28 20 61 20
105 0 215 102 451 265 614 144 144 342 239 550 265 119 15 324 6 368 -15z"/>
</g>
</svg>
